<svg width="582" height="163" viewBox="0 0 582 163" fill="none" xmlns="http://www.w3.org/2000/svg">
<mask id="mask0" style="mask-type:alpha" maskUnits="userSpaceOnUse" x="0" y="36" width="582" height="127">
<ellipse cx="291" cy="99.2871" rx="291" ry="62.7305" fill="#097EBF"/>
</mask>
<g mask="url(#mask0)">
<ellipse cx="291" cy="99.287" rx="128.653" ry="104.059" fill="#097EBF"/>
</g>
<mask id="mask1" style="mask-type:alpha" maskUnits="userSpaceOnUse" x="15" y="40" width="554" height="120">
<ellipse cx="291.581" cy="99.6418" rx="276.479" ry="59.6003" fill="#D1E5F0"/>
</mask>
<g mask="url(#mask1)">
<ellipse cx="291.581" cy="99.6418" rx="122.233" ry="98.8663" fill="#D1E5F0"/>
</g>
<rect x="244.452" y="66.0984" width="21.0719" height="90.7725" fill="white" stroke="black"/>
<rect x="266.524" y="66.0984" width="21.0719" height="90.7725" fill="white" stroke="black"/>
<rect x="288.596" y="66.0984" width="21.0719" height="90.7725" fill="white" stroke="black"/>
<rect x="310.668" y="66.0984" width="21.0719" height="90.7725" fill="white" stroke="black"/>
<rect x="260.216" y="65.5984" width="11.6168" height="63.8922" fill="black"/>
<rect x="282.287" y="65.5984" width="11.6168" height="63.8922" fill="black"/>
<rect x="304.359" y="65.5984" width="11.6168" height="63.8922" fill="black"/>
<path d="M191.105 20.9102L182.174 20.2023L180.759 32.0732L175.803 32.291L173.734 2.88604L193.446 2.28705L193.283 5.282L183.863 6.37107L182.556 16.9895L190.833 16.8806L191.105 20.9102Z" fill="black"/>
<path d="M213.322 13.7768C215.718 16.572 216.916 19.7485 216.916 23.3061C216.916 26.8638 216.208 29.3686 214.792 30.8207C213.376 32.2728 210.763 32.9989 206.951 32.9989C203.139 32.9989 200.18 32.1276 198.075 30.3851C196.623 23.2698 197.458 17.4978 200.58 13.0689C202.54 10.3462 204.265 8.60367 205.753 7.84132C208.584 9.29341 211.108 11.2719 213.322 13.7768ZM211.035 28.1525C211.507 26.3374 211.743 24.2318 211.743 21.8359C211.743 19.4399 211.144 17.0803 209.946 14.7569C207.477 16.0638 205.426 18.0604 203.793 20.7468C202.195 23.3969 201.397 26.0833 201.397 28.8059C202.34 28.9875 203.702 29.0782 205.481 29.0782C207.296 29.0782 209.147 28.7696 211.035 28.1525Z" fill="black"/>
<path d="M234.831 26.6823C235.92 25.2665 236.664 23.7236 237.064 22.0537C237.499 20.3838 237.717 18.9317 237.717 17.6974C237.717 16.4631 237.554 14.049 237.227 10.4551L246.756 9.0393L243.87 32.1821L239.46 32.5632L238.588 24.1229H238.262C236.047 30.0039 232.544 32.9444 227.752 32.9444C227.026 32.9444 226.427 32.8174 225.955 32.5632C224.43 30.7481 223.396 27.6261 222.851 23.1972C222.307 18.7683 222.035 14.3576 222.035 9.96501L230.91 9.31156C230.402 14.5028 230.13 18.3872 230.094 20.9646C230.094 23.5421 230.311 26.3374 230.747 29.3505C232.381 28.9875 233.742 28.0981 234.831 26.6823Z" fill="black"/>
<path d="M266.904 17.2073C264.871 17.2073 263.329 17.9152 262.276 19.331C261.259 20.7468 260.497 23.3424 259.989 27.1179L259.39 32.1821L254.979 32.5632L252.746 10.4551L262.276 8.98484L261.35 16.1183H261.677C264.073 10.9996 267.104 8.27695 270.77 7.95022L269.518 17.4251C268.429 17.2799 267.558 17.2073 266.904 17.2073Z" fill="black"/>
<path d="M291.626 8.54921C292.134 8.54921 292.679 8.65812 293.26 8.87593C294.785 10.6911 295.819 13.8675 296.364 18.4053C296.908 22.9431 297.18 27.4446 297.18 31.9098L289.176 32.5632C289.176 25.7021 288.94 19.4762 288.468 13.8857C284.511 15.3378 281.861 21.4366 280.518 32.1821L276.107 32.5632L273.874 1.47025L283.404 0L281.716 18.3509H282.151C283.386 15.3741 284.82 12.9963 286.453 11.2174C288.087 9.43862 289.811 8.54921 291.626 8.54921Z" fill="black"/>
<path d="M306.329 32.9444C305.82 32.9444 305.457 32.9263 305.24 32.89C304.223 32.2002 303.406 31.1838 302.789 29.8406C302.208 28.4974 301.918 26.9908 301.918 25.3209C301.918 23.6147 302.626 22.3441 304.042 21.5092C305.494 20.6379 308.144 20.2023 311.992 20.2023C313.408 20.2023 314.914 20.293 316.512 20.4745L316.403 19.4944C316.294 18.2964 315.731 17.3525 314.715 16.6628C313.698 15.9731 312.391 15.6282 310.794 15.6282C309.233 15.6282 307.672 16.1183 306.111 17.0984L304.151 10.6729C306.692 9.62013 309.596 9.09375 312.863 9.09375C316.13 9.09375 318.708 9.83795 320.596 11.3263C322.52 12.7784 323.482 15.0655 323.482 18.1875C323.482 18.9135 323.445 19.4762 323.373 19.8756L322.175 32.1821L317.709 32.5632L317.056 26.1377H316.729C315.713 28.2796 314.297 29.9495 312.482 31.1475C310.703 32.3454 308.652 32.9444 306.329 32.9444ZM316.675 22.3804L314.333 22.326C312.373 22.326 310.758 22.4349 309.487 22.6527C309.088 23.4876 308.888 24.2318 308.888 24.8853C308.888 25.5387 308.961 26.174 309.106 26.7912C309.287 27.372 309.487 27.7532 309.705 27.9347C313.262 27.3902 315.586 25.5387 316.675 22.3804Z" fill="black"/>
<path d="M346.788 8.54921C347.332 8.54921 347.895 8.65812 348.476 8.87593C350 10.6911 351.035 13.8675 351.58 18.4053C352.124 22.9431 352.396 27.4446 352.396 31.9098L344.392 32.5632C344.392 25.7021 344.138 19.4762 343.629 13.8857C339.672 15.3378 337.041 21.4366 335.734 32.1821L331.323 32.5632L329.09 10.4551L338.62 8.98484L337.585 16.8262H338.021C339.219 14.2487 340.562 12.2339 342.05 10.7818C343.575 9.29341 345.154 8.54921 346.788 8.54921Z" fill="black"/>
<path d="M364.703 32.9444C363.977 32.9444 363.378 32.8174 362.906 32.5632C361.817 31.4379 360.927 29.768 360.238 27.5535C359.584 25.3028 359.258 22.6164 359.258 19.4944C359.258 16.3361 359.947 13.9401 361.327 12.3065C362.706 10.6366 365.102 9.80165 368.515 9.80165C370.62 9.80165 372.726 10.2191 374.831 11.0541L374.178 1.47025L383.707 0L380.876 32.1821L376.41 32.5632L375.866 24.8853H375.485C373.198 30.258 369.604 32.9444 364.703 32.9444ZM370.257 12.4699C369.168 12.4699 368.224 12.6695 367.426 13.0689C367.026 15.2107 366.827 18.0423 366.827 21.5636C366.827 25.085 367.135 27.6806 367.752 29.3505C369.204 29.1327 370.729 28.0981 372.326 26.2466C373.161 25.3028 373.851 23.9596 374.396 22.2171C374.977 20.4382 375.267 18.4235 375.267 16.1727C375.267 15.7371 375.231 15.0292 375.158 14.049C373.815 12.9963 372.181 12.4699 370.257 12.4699Z" fill="black"/>
<path d="M389.425 17.2073C389.425 13.3956 391.44 9.91055 395.469 6.75224L402.766 11.7075C399.462 13.8131 397.811 16.0275 397.811 18.3509C397.811 19.5851 398.482 21.1824 399.826 23.1428C401.205 25.1031 401.895 26.6278 401.895 27.7169C401.895 31.6012 399.208 34.6143 393.836 36.7562L391.875 34.0879C394.235 32.8174 395.415 31.4379 395.415 29.9495C395.415 28.4248 394.416 26.5552 392.42 24.3408C391.657 23.5058 390.968 22.453 390.351 21.1824C389.733 19.8756 389.425 18.5505 389.425 17.2073Z" fill="black"/>
<path d="M210.232 46.6622L216.871 46.4875L216.839 47.361L215.012 47.5516L214.202 55.191L212.789 55.3181L212.122 47.8375L210.311 48.0122L210.232 46.6622Z" fill="black"/>
<path d="M223.16 48.3299C223.308 48.3299 223.467 48.3616 223.636 48.4252C224.081 48.9546 224.383 49.881 224.542 51.2046C224.7 52.5281 224.78 53.841 224.78 55.1434L222.445 55.3339C222.445 53.3328 222.376 51.5169 222.239 49.8863C221.085 50.3098 220.312 52.0887 219.92 55.2228L218.633 55.3339L217.982 46.2652L220.762 45.8363L220.269 51.1887H220.396C220.756 50.3204 221.175 49.6269 221.651 49.1081C222.128 48.5893 222.63 48.3299 223.16 48.3299Z" fill="black"/>
<path d="M228.782 48.1234C230.879 48.9599 231.927 50.0081 231.927 51.2681C231.927 51.9245 231.742 52.3957 231.371 52.6816C231 52.9675 230.408 53.1104 229.592 53.1104C228.788 53.1104 228.179 53.0628 227.766 52.9675C227.607 53.3698 227.522 53.7934 227.512 54.2381C227.903 54.291 228.449 54.3175 229.148 54.3175C229.846 54.3175 230.598 54.1798 231.403 53.9045L231.784 55.1592C231.149 55.3604 230.439 55.461 229.656 55.461C228.248 55.461 227.215 55.2016 226.559 54.6828C226.421 54.0687 226.352 53.4916 226.352 52.9516C226.352 51.861 226.59 50.8763 227.067 49.9975C227.554 49.1081 228.126 48.4834 228.782 48.1234ZM228.02 52.364C228.126 52.3745 228.406 52.3798 228.862 52.3798C229.328 52.3798 229.857 52.3163 230.45 52.1893C230.471 52.0304 230.487 51.8663 230.498 51.6969C230.498 51.1781 230.349 50.6804 230.053 50.204C229.185 50.7757 228.507 51.4957 228.02 52.364Z" fill="black"/>
<path d="M240.805 45.3916L241.282 47.6152C240.487 47.8904 239.926 48.3616 239.598 49.0287L241.742 48.9175L241.695 49.7751L240.408 49.9657L239.773 55.2228L238.486 55.3339L237.962 50.3469L236.866 50.5057L236.771 49.1716L237.946 49.124C238.01 47.9593 238.317 47.0699 238.867 46.4557C239.418 45.831 240.064 45.4763 240.805 45.3916Z" fill="black"/>
<path d="M243.855 55.4451C243.706 55.4451 243.6 55.4398 243.537 55.4292C243.24 55.2281 243.002 54.9316 242.822 54.5398C242.653 54.1481 242.568 53.7087 242.568 53.2216C242.568 52.724 242.775 52.3534 243.187 52.1098C243.611 51.8557 244.384 51.7287 245.506 51.7287C245.919 51.7287 246.359 51.7551 246.825 51.8081L246.793 51.5222C246.761 51.1728 246.597 50.8975 246.3 50.6963C246.004 50.4951 245.623 50.3946 245.157 50.3946C244.702 50.3946 244.246 50.5375 243.791 50.8234L243.219 48.9493C243.96 48.6422 244.807 48.4887 245.76 48.4887C246.713 48.4887 247.465 48.7057 248.016 49.1399C248.577 49.5634 248.857 50.2304 248.857 51.141C248.857 51.3528 248.847 51.5169 248.826 51.6334L248.476 55.2228L247.174 55.3339L246.983 53.4598H246.888C246.592 54.0845 246.179 54.5716 245.649 54.921C245.13 55.2704 244.532 55.4451 243.855 55.4451ZM246.872 52.364L246.189 52.3481C245.617 52.3481 245.146 52.3798 244.776 52.4434C244.659 52.6869 244.601 52.904 244.601 53.0945C244.601 53.2851 244.622 53.4704 244.665 53.6504C244.717 53.8198 244.776 53.931 244.839 53.984C245.877 53.8251 246.555 53.2851 246.872 52.364Z" fill="black"/>
<path d="M250.414 50.8551C250.414 49.7434 251.002 48.7269 252.177 47.8057L254.305 49.251C253.342 49.8651 252.86 50.511 252.86 51.1887C252.86 51.5487 253.056 52.0145 253.447 52.5863C253.85 53.1581 254.051 53.6028 254.051 53.9204C254.051 55.0534 253.267 55.9322 251.7 56.5569L251.129 55.7787C251.817 55.4081 252.161 55.0057 252.161 54.5716C252.161 54.1269 251.87 53.5816 251.287 52.9357C251.065 52.6922 250.864 52.3851 250.684 52.0145C250.504 51.6334 250.414 51.2469 250.414 50.8551Z" fill="black"/>
<path d="M257.053 55.3339L256.497 50.0928L255.29 50.2516L255.21 48.9175L256.354 48.854L256.163 47.0434L259.403 46.5987L259.133 48.711L260.436 48.6475L260.388 49.521L259.006 49.7116L258.339 55.2228L257.053 55.3339Z" fill="black"/>
<path d="M266.534 55.3339L265.979 50.0928L264.772 50.2516L264.692 48.9175L265.836 48.854L265.645 47.0434L268.885 46.5987L268.615 48.711L269.917 48.6475L269.87 49.521L268.488 49.7116L267.821 55.2228L266.534 55.3339Z" fill="black"/>
<path d="M273.237 48.5046L274.031 53.5551H274.126L275.905 48.9493L276.826 49.2193L278.033 53.5869H278.129L279.479 48.584L280.543 48.8699L278.462 55.1751L277.414 55.3339L275.524 52.3004L274.301 55.1751L272.999 55.3339L270.553 48.8857L273.237 48.5046Z" fill="black"/>
<path d="M286.213 49.8546C286.911 50.6698 287.261 51.5963 287.261 52.634C287.261 53.6716 287.054 54.4022 286.641 54.8257C286.228 55.2492 285.466 55.461 284.354 55.461C283.243 55.461 282.38 55.2069 281.766 54.6987C281.342 52.6234 281.586 50.9398 282.496 49.6481C283.068 48.854 283.571 48.3457 284.005 48.1234C284.831 48.5469 285.567 49.124 286.213 49.8546ZM285.546 54.0475C285.683 53.5181 285.752 52.904 285.752 52.2051C285.752 51.5063 285.577 50.8181 285.228 50.1404C284.508 50.5216 283.91 51.104 283.433 51.8875C282.967 52.6604 282.734 53.444 282.734 54.2381C283.01 54.291 283.407 54.3175 283.926 54.3175C284.455 54.3175 284.995 54.2275 285.546 54.0475Z" fill="black"/>
<path d="M297.981 48.3299C298.14 48.3299 298.299 48.3616 298.458 48.4252C298.776 48.7957 299.03 49.3569 299.22 50.1087C299.411 50.8604 299.506 51.6969 299.506 52.6181C299.506 53.5393 299.305 54.2434 298.903 54.7304C298.5 55.2175 297.801 55.461 296.806 55.461C296.097 55.461 295.43 55.3128 294.805 55.0163L294.44 57.8434L293.233 57.9704L292.836 48.8857L295.615 48.4569L295.329 50.744H295.424C295.774 50.0028 296.166 49.4151 296.6 48.981C297.044 48.5469 297.505 48.3299 297.981 48.3299ZM296.298 54.651C296.616 54.651 296.891 54.5928 297.124 54.4763C297.251 53.8092 297.314 53.174 297.314 52.5704C297.314 51.2893 297.23 50.3946 297.06 49.8863C296.87 49.9604 296.727 50.024 296.631 50.0769C296.536 50.1299 296.383 50.2516 296.171 50.4422C295.557 51.014 295.133 52.2581 294.9 54.1745C295.281 54.4922 295.747 54.651 296.298 54.651Z" fill="black"/>
<path d="M302.158 55.3339L301.507 46.2652L304.287 45.8363L303.445 55.2228L302.158 55.3339Z" fill="black"/>
<path d="M306.923 55.4451C306.775 55.4451 306.669 55.4398 306.605 55.4292C306.309 55.2281 306.071 54.9316 305.891 54.5398C305.721 54.1481 305.637 53.7087 305.637 53.2216C305.637 52.724 305.843 52.3534 306.256 52.1098C306.68 51.8557 307.453 51.7287 308.575 51.7287C308.988 51.7287 309.427 51.7551 309.893 51.8081L309.861 51.5222C309.83 51.1728 309.665 50.8975 309.369 50.6963C309.073 50.4951 308.691 50.3946 308.225 50.3946C307.77 50.3946 307.315 50.5375 306.86 50.8234L306.288 48.9493C307.029 48.6422 307.876 48.4887 308.829 48.4887C309.782 48.4887 310.534 48.7057 311.084 49.1399C311.645 49.5634 311.926 50.2304 311.926 51.141C311.926 51.3528 311.915 51.5169 311.894 51.6334L311.545 55.2228L310.243 55.3339L310.052 53.4598H309.957C309.66 54.0845 309.247 54.5716 308.718 54.921C308.199 55.2704 307.601 55.4451 306.923 55.4451ZM309.941 52.364L309.258 52.3481C308.686 52.3481 308.215 52.3798 307.844 52.4434C307.728 52.6869 307.67 52.904 307.67 53.0945C307.67 53.2851 307.691 53.4704 307.733 53.6504C307.786 53.8198 307.844 53.931 307.908 53.984C308.945 53.8251 309.623 53.2851 309.941 52.364Z" fill="black"/>
<path d="M316.865 55.8898C316.558 56.6416 316.241 57.1657 315.913 57.4622C315.584 57.7586 315.15 57.9069 314.61 57.9069C314.081 57.9069 313.578 57.711 313.101 57.3192L313.483 56.6522C313.768 56.7581 314.081 56.811 314.42 56.811C314.769 56.811 315.081 56.6945 315.357 56.4616C315.643 56.2392 315.823 55.9004 315.897 55.4451L313.197 48.8857L315.976 48.4728L316.85 53.4598H316.945L318.628 48.5046L319.677 48.7904L316.865 55.8898Z" fill="black"/>
<path d="M323.139 48.1234C325.235 48.9599 326.284 50.0081 326.284 51.2681C326.284 51.9245 326.098 52.3957 325.728 52.6816C325.357 52.9675 324.764 53.1104 323.949 53.1104C323.144 53.1104 322.535 53.0628 322.122 52.9675C321.964 53.3698 321.879 53.7934 321.868 54.2381C322.26 54.291 322.805 54.3175 323.504 54.3175C324.203 54.3175 324.955 54.1798 325.76 53.9045L326.141 55.1592C325.505 55.3604 324.796 55.461 324.012 55.461C322.604 55.461 321.572 55.2016 320.915 54.6828C320.778 54.0687 320.709 53.4916 320.709 52.9516C320.709 51.861 320.947 50.8763 321.424 49.9975C321.911 49.1081 322.482 48.4834 323.139 48.1234ZM322.377 52.364C322.482 52.3745 322.763 52.3798 323.218 52.3798C323.684 52.3798 324.214 52.3163 324.807 52.1893C324.828 52.0304 324.844 51.8663 324.854 51.6969C324.854 51.1781 324.706 50.6804 324.41 50.204C323.541 50.7757 322.864 51.4957 322.377 52.364Z" fill="black"/>
<path d="M331.97 50.8551C331.377 50.8551 330.927 51.0616 330.62 51.4746C330.323 51.8875 330.101 52.6445 329.952 53.7457L329.778 55.2228L328.491 55.3339L327.84 48.8857L330.62 48.4569L330.35 50.5375H330.445C331.144 49.0446 332.028 48.2504 333.097 48.1552L332.732 50.9187C332.414 50.8763 332.16 50.8551 331.97 50.8551Z" fill="black"/>
<path d="M343.167 48.3299C343.325 48.3299 343.484 48.3616 343.643 48.4252C343.961 48.7957 344.215 49.3569 344.405 50.1087C344.596 50.8604 344.691 51.6969 344.691 52.6181C344.691 53.5393 344.49 54.2434 344.088 54.7304C343.685 55.2175 342.987 55.461 341.991 55.461C341.282 55.461 340.615 55.3128 339.99 55.0163L339.625 57.8434L338.418 57.9704L338.021 48.8857L340.8 48.4569L340.514 50.744H340.609C340.959 50.0028 341.351 49.4151 341.785 48.981C342.229 48.5469 342.69 48.3299 343.167 48.3299ZM341.483 54.651C341.801 54.651 342.076 54.5928 342.309 54.4763C342.436 53.8092 342.499 53.174 342.499 52.5704C342.499 51.2893 342.415 50.3946 342.245 49.8863C342.055 49.9604 341.912 50.024 341.817 50.0769C341.721 50.1299 341.568 50.2516 341.356 50.4422C340.742 51.014 340.318 52.2581 340.085 54.1745C340.467 54.4922 340.932 54.651 341.483 54.651Z" fill="black"/>
<path d="M347.344 55.3339L346.692 48.8857L349.472 48.4728L348.63 55.2228L347.344 55.3339ZM347.089 47.4563C346.857 47.2128 346.74 46.9269 346.74 46.5987C346.74 46.2599 346.857 45.974 347.089 45.741C347.333 45.5081 347.619 45.3916 347.947 45.3916C348.275 45.3916 348.556 45.5081 348.789 45.741C349.032 45.974 349.154 46.2599 349.154 46.5987C349.154 46.9269 349.032 47.2128 348.789 47.4563C348.556 47.6893 348.275 47.8057 347.947 47.8057C347.619 47.8057 347.333 47.6893 347.089 47.4563Z" fill="black"/>
<path d="M352.108 55.4451C351.96 55.4451 351.854 55.4398 351.791 55.4292C351.494 55.2281 351.256 54.9316 351.076 54.5398C350.906 54.1481 350.822 53.7087 350.822 53.2216C350.822 52.724 351.028 52.3534 351.441 52.1098C351.865 51.8557 352.638 51.7287 353.76 51.7287C354.173 51.7287 354.612 51.7551 355.078 51.8081L355.046 51.5222C355.015 51.1728 354.851 50.8975 354.554 50.6963C354.258 50.4951 353.876 50.3946 353.411 50.3946C352.955 50.3946 352.5 50.5375 352.045 50.8234L351.473 48.9493C352.214 48.6422 353.061 48.4887 354.014 48.4887C354.967 48.4887 355.719 48.7057 356.269 49.1399C356.831 49.5634 357.111 50.2304 357.111 51.141C357.111 51.3528 357.101 51.5169 357.079 51.6334L356.73 55.2228L355.428 55.3339L355.237 53.4598H355.142C354.845 54.0845 354.432 54.5716 353.903 54.921C353.384 55.2704 352.786 55.4451 352.108 55.4451ZM355.126 52.364L354.443 52.3481C353.871 52.3481 353.4 52.3798 353.029 52.4434C352.913 52.6869 352.855 52.904 352.855 53.0945C352.855 53.2851 352.876 53.4704 352.918 53.6504C352.971 53.8198 353.029 53.931 353.093 53.984C354.131 53.8251 354.808 53.2851 355.126 52.364Z" fill="black"/>
<path d="M363.909 48.3299C364.068 48.3299 364.232 48.3616 364.401 48.4252C364.846 48.9546 365.148 49.881 365.306 51.2046C365.465 52.5281 365.545 53.841 365.545 55.1434L363.21 55.3339C363.21 53.3328 363.136 51.5169 362.988 49.8863C361.834 50.3098 361.066 52.0887 360.685 55.2228L359.398 55.3339L358.747 48.8857L361.526 48.4569L361.225 50.744H361.352C361.701 49.9922 362.093 49.4046 362.527 48.981C362.972 48.5469 363.432 48.3299 363.909 48.3299Z" fill="black"/>
<path d="M371.771 49.8546C372.469 50.6698 372.819 51.5963 372.819 52.634C372.819 53.6716 372.612 54.4022 372.199 54.8257C371.786 55.2492 371.024 55.461 369.912 55.461C368.801 55.461 367.938 55.2069 367.323 54.6987C366.9 52.6234 367.143 50.9398 368.054 49.6481C368.626 48.854 369.129 48.3457 369.563 48.1234C370.389 48.5469 371.125 49.124 371.771 49.8546ZM371.103 54.0475C371.241 53.5181 371.31 52.904 371.31 52.2051C371.31 51.5063 371.135 50.8181 370.786 50.1404C370.066 50.5216 369.468 51.104 368.991 51.8875C368.525 52.6604 368.292 53.444 368.292 54.2381C368.568 54.291 368.965 54.3175 369.483 54.3175C370.013 54.3175 370.553 54.2275 371.103 54.0475Z" fill="black"/>
<path d="M175.413 114.389C175.413 122.088 169.172 128.329 161.473 128.329C153.774 128.329 147.533 122.088 147.533 114.389C147.533 106.69 153.774 100.449 161.473 100.449C169.172 100.449 175.413 106.69 175.413 114.389Z" fill="white"/>
<path d="M182.383 128.329C182.383 136.028 176.142 142.269 168.443 142.269C160.744 142.269 154.503 136.028 154.503 128.329C154.503 120.63 160.744 114.389 168.443 114.389C176.142 114.389 182.383 120.63 182.383 128.329Z" fill="white"/>
<path d="M196.323 116.712C196.323 124.411 190.082 130.652 182.383 130.652C174.684 130.652 168.443 124.411 168.443 116.712C168.443 109.013 174.684 102.772 182.383 102.772C190.082 102.772 196.323 109.013 196.323 116.712Z" fill="white"/>
<path d="M196.323 105.095C196.323 112.794 190.082 119.036 182.383 119.036C174.684 119.036 168.443 112.794 168.443 105.095C168.443 97.3965 174.684 91.1553 182.383 91.1553C190.082 91.1553 196.323 97.3965 196.323 105.095Z" fill="white"/>
<path d="M205.617 126.006C205.617 133.705 199.376 139.946 191.677 139.946C183.978 139.946 177.737 133.705 177.737 126.006C177.737 118.307 183.978 112.065 191.677 112.065C199.376 112.065 205.617 118.307 205.617 126.006Z" fill="white"/>
<path d="M216.072 108.58C216.072 116.279 209.831 122.521 202.132 122.521C194.433 122.521 188.192 116.279 188.192 108.58C188.192 100.882 194.433 94.6403 202.132 94.6403C209.831 94.6403 216.072 100.882 216.072 108.58Z" fill="white"/>
<path d="M401.94 73.7301C401.94 81.4291 395.699 87.6703 388 87.6703C380.301 87.6703 374.06 81.4291 374.06 73.7301C374.06 66.0312 380.301 59.79 388 59.79C395.699 59.79 401.94 66.0312 401.94 73.7301Z" fill="white"/>
<path d="M408.91 87.6703C408.91 95.3692 402.669 101.61 394.97 101.61C387.271 101.61 381.03 95.3692 381.03 87.6703C381.03 79.9713 387.271 73.7301 394.97 73.7301C402.669 73.7301 408.91 79.9713 408.91 87.6703Z" fill="white"/>
<path d="M422.85 76.0535C422.85 83.7524 416.609 89.9936 408.91 89.9936C401.211 89.9936 394.97 83.7524 394.97 76.0535C394.97 68.3546 401.211 62.1134 408.91 62.1134C416.609 62.1134 422.85 68.3546 422.85 76.0535Z" fill="white"/>
<path d="M422.85 64.4367C422.85 72.1356 416.609 78.3768 408.91 78.3768C401.211 78.3768 394.97 72.1356 394.97 64.4367C394.97 56.7378 401.211 50.4966 408.91 50.4966C416.609 50.4966 422.85 56.7378 422.85 64.4367Z" fill="white"/>
<path d="M432.144 85.3469C432.144 93.0458 425.902 99.287 418.204 99.287C410.505 99.287 404.263 93.0458 404.263 85.3469C404.263 77.648 410.505 71.4068 418.204 71.4068C425.902 71.4068 432.144 77.648 432.144 85.3469Z" fill="white"/>
<path d="M442.599 67.9218C442.599 75.6207 436.358 81.8619 428.659 81.8619C420.96 81.8619 414.719 75.6207 414.719 67.9218C414.719 60.2228 420.96 53.9816 428.659 53.9816C436.358 53.9816 442.599 60.2228 442.599 67.9218Z" fill="white"/>
<rect x="241.629" y="65.5984" width="92.9341" height="12.7784" fill="#C8A731"/>
</svg>
