<svg width="605" height="127" viewBox="0 0 605 127" fill="none" xmlns="http://www.w3.org/2000/svg">
<path d="M0 19C0 8.50659 8.50659 0 19 0H586C596.493 0 605 8.50659 605 19V108C605 118.493 596.493 127 586 127H19C8.5066 127 0 118.493 0 108V19Z" fill="black"/>
<g filter="url(#filter0_d)">
<path d="M206 14H592V46.0001H206V14Z" fill="#3F6653"/>
<path d="M206.5 14.5H591.5V45.5001H206.5V14.5Z" stroke="black"/>
</g>
<path d="M230.623 41.2951V14.0009V44.1186M208 14.0009L208 45.0598M251.832 14.0009V44.1186M273.04 14.0009V44.1186M294.249 14.0009V44.1186M315.369 14L315.467 44.1176M336.667 14.0009V44.1186M357.875 14.0009V44.1186M379.084 14.0009V44.1186M400.293 14.0009V45.0598M421.502 14.0009V44.1186M442.711 14.0009V44.1186M463.919 14.0009V44.1186M485.128 14.0009V44.1186M506.337 14.0009V44.1186M527.546 14.0009V44.1186M548.755 14.0009V44.1186M569.963 14.0009V44.1186M591.172 14.0009V45.0598M208.707 22.0009H590.465M208.707 29.5303H590.465M208.707 37.0598H590.465M208.707 44.5892H591.879M208.707 14.4715L590.465 14.4623" stroke="#6E701E"/>
<path d="M13.978 44.018C13.81 44.018 13.684 43.904 13.6 43.676C13.42 43.28 13.33 42.56 13.33 41.516C13.33 40.508 13.348 39.35 13.384 38.042C13.396 37.622 13.402 36.974 13.402 36.098L13.348 36.026H11.35C11.194 36.026 11.068 35.942 10.972 35.774C10.888 35.594 10.822 35.348 10.774 35.036C10.714 34.676 10.684 34.16 10.684 33.488V33.236C10.684 33.116 10.69 33.02 10.702 32.948V32.516C10.702 32.444 10.738 32.384 10.81 32.336C10.882 32.276 10.966 32.234 11.062 32.21C11.182 32.174 11.362 32.156 11.602 32.156H12.97C13.27 32.156 13.498 32.162 13.654 32.174L14.32 32.192H20.8C21.268 32.192 21.574 32.198 21.718 32.21C21.778 32.222 21.862 32.234 21.97 32.246C22.078 32.258 22.156 32.282 22.204 32.318C22.288 32.354 22.336 32.402 22.348 32.462C22.372 32.51 22.384 32.588 22.384 32.696V35.666C22.384 35.798 22.33 35.888 22.222 35.936C22.15 35.96 22.054 35.972 21.934 35.972H20.764C20.488 35.972 20.278 35.96 20.134 35.936H19.594C19.486 35.936 19.426 35.96 19.414 36.008C19.414 36.02 19.408 36.038 19.396 36.062C19.384 36.074 19.378 36.092 19.378 36.116V36.998C19.378 37.178 19.372 37.316 19.36 37.412C19.36 37.76 19.336 38.522 19.288 39.698L19.252 40.238C19.228 40.742 19.204 41.108 19.18 41.336V43.046C19.18 43.454 19.096 43.712 18.928 43.82C18.772 43.88 18.664 43.916 18.604 43.928L18.154 43.946C17.686 43.946 17.356 43.958 17.164 43.982L15.274 44C15.034 44.012 14.602 44.018 13.978 44.018Z" fill="white"/>
<path d="M26.7518 44.054C26.2478 44.054 25.8218 44.042 25.4738 44.018C25.1378 43.994 24.8198 43.94 24.5198 43.856C24.4718 43.856 24.4358 43.832 24.4118 43.784C24.3878 43.724 24.3698 43.682 24.3578 43.658C24.3458 43.598 24.3398 43.526 24.3398 43.442C24.2678 42.23 24.2018 41.288 24.1418 40.616C24.0818 39.824 24.0518 38.834 24.0518 37.646V37.196L24.0698 36.512L24.1058 35.702L24.1238 35.252C24.1358 35.168 24.1418 35.036 24.1418 34.856V34.172C24.1418 33.944 24.1478 33.794 24.1598 33.722C24.1598 33.686 24.1838 33.668 24.2318 33.668C24.3398 33.668 24.4358 33.644 24.5198 33.596C24.5558 33.596 24.6098 33.596 24.6818 33.596C24.7658 33.584 24.8378 33.584 24.8978 33.596H27.9758C28.1918 33.596 28.3538 33.602 28.4618 33.614L29.0018 33.632C29.1338 33.632 29.2298 33.644 29.2898 33.668C29.3618 33.68 29.4158 33.716 29.4518 33.776C29.4878 33.812 29.5118 33.884 29.5238 33.992C29.5358 34.1 29.5418 34.22 29.5418 34.352V34.748C29.5418 34.868 29.5478 34.952 29.5598 35V35.306C29.5718 35.354 29.5778 35.414 29.5778 35.486L29.5598 36.026C29.5478 36.146 29.5418 36.32 29.5418 36.548C29.5418 36.68 29.5538 36.77 29.5778 36.818C29.6138 36.878 29.6678 36.908 29.7398 36.908C29.7638 36.908 29.8238 36.896 29.9198 36.872C29.9558 36.872 30.0038 36.866 30.0638 36.854C30.1238 36.842 30.1898 36.836 30.2618 36.836H30.4418C30.5018 36.86 30.6098 36.872 30.7658 36.872C30.8258 36.872 30.8798 36.866 30.9278 36.854C30.9878 36.842 31.0418 36.836 31.0898 36.836C31.1978 36.836 31.2518 36.824 31.2518 36.8V35.792C31.2518 35.612 31.2578 35.468 31.2698 35.36V34.856C31.2818 34.736 31.2878 34.568 31.2878 34.352C31.2878 34.148 31.2938 34.01 31.3058 33.938V33.668H31.4498C31.5218 33.668 31.5578 33.644 31.5578 33.596H32.4218C32.7818 33.596 33.0518 33.608 33.2318 33.632C33.5438 33.656 33.7958 33.668 33.9878 33.668L35.1218 33.632C35.3018 33.608 35.5238 33.596 35.7878 33.596H36.2558C36.4958 33.596 36.6578 33.62 36.7418 33.668C36.8258 33.716 36.8678 33.836 36.8678 34.028V35.45C36.8678 35.69 36.8618 35.882 36.8498 36.026L36.8318 36.458C36.8318 36.65 36.8198 36.938 36.7958 37.322L36.7778 37.628L36.7958 37.916L36.6158 43.622C36.6158 43.658 36.5798 43.736 36.5078 43.856C36.4358 43.952 36.3638 44 36.2918 44H35.0318C34.5638 44 34.1018 43.982 33.6458 43.946C33.3458 43.934 32.8958 43.928 32.2958 43.928H31.9898C31.8218 43.928 31.7078 43.868 31.6478 43.748C31.5998 43.592 31.5698 43.388 31.5578 43.136L31.3778 40.166H31.1978C30.9098 40.166 30.6998 40.16 30.5678 40.148C30.4478 40.124 30.3878 40.112 30.3878 40.112H29.6498C29.6018 40.112 29.5718 40.13 29.5598 40.166C29.5478 40.202 29.5418 40.244 29.5418 40.292C29.5418 40.328 29.5418 40.358 29.5418 40.382V43.712C29.5418 43.748 29.5358 43.784 29.5238 43.82C29.5118 43.844 29.5058 43.868 29.5058 43.892C29.4938 43.928 29.4638 43.946 29.4158 43.946C29.4038 43.946 29.3858 43.952 29.3618 43.964C29.3378 43.976 29.3078 43.988 29.2718 44C28.8278 44 28.4078 44.018 28.0118 44.054H26.7518Z" fill="white"/>
<path d="M39.6421 43.928C39.6181 43.928 39.6001 43.904 39.5881 43.856C39.5041 43.748 39.4441 43.616 39.4081 43.46C39.3721 43.4 39.3421 43.322 39.3181 43.226C39.2101 43.01 39.1321 42.71 39.0841 42.326C39.0361 41.774 39.0121 41.336 39.0121 41.012C39.0001 40.868 38.9941 40.67 38.9941 40.418V39.986C38.9941 39.626 38.9881 39.344 38.9761 39.14C38.9641 38.924 38.9581 38.498 38.9581 37.862C38.9581 36.158 38.9941 34.844 39.0661 33.92C39.0661 33.776 39.2701 33.668 39.6781 33.596H40.6681C41.3521 33.596 41.8621 33.608 42.1981 33.632C42.7021 33.668 43.2121 33.686 43.7281 33.686C43.8481 33.686 43.9381 33.68 43.9981 33.668H44.2681L44.3581 33.74C44.7541 33.656 45.1621 33.602 45.5821 33.578C46.0021 33.554 46.5121 33.542 47.1121 33.542C47.1361 33.542 47.1661 33.56 47.2021 33.596H47.7781C47.8741 33.596 47.9461 33.65 47.9941 33.758C48.0541 33.866 48.1021 34.022 48.1381 34.226C48.1861 34.382 48.2221 34.574 48.2461 34.802C48.2941 35.102 48.3361 35.3 48.3721 35.396C48.3721 35.732 48.3121 35.9 48.1921 35.9C48.1801 35.9 48.1621 35.882 48.1381 35.846L48.0661 35.828C48.0061 35.816 47.9401 35.822 47.8681 35.846C47.7961 35.882 47.7181 35.9 47.6341 35.9C47.5621 35.9 47.5021 35.882 47.4541 35.846C47.4301 35.834 47.3761 35.828 47.2921 35.828C47.1841 35.828 47.0581 35.846 46.9141 35.882C46.8661 35.894 46.7701 35.912 46.6261 35.936C46.4941 35.96 46.3381 35.972 46.1581 35.972C45.6421 35.972 45.2701 35.984 45.0421 36.008C44.9101 36.02 44.7841 36.056 44.6641 36.116V36.08C44.6161 36.08 44.5741 36.14 44.5381 36.26C44.4541 36.464 44.4001 36.746 44.3761 37.106C44.3641 37.214 44.3581 37.334 44.3581 37.466C44.3581 37.598 44.3761 37.688 44.4121 37.736C44.4601 37.784 44.5321 37.808 44.6281 37.808C44.7001 37.808 44.7601 37.784 44.8081 37.736C44.8321 37.736 44.8621 37.742 44.8981 37.754C44.9341 37.766 44.9641 37.784 44.9881 37.808H46.5181C46.5301 37.784 46.5481 37.766 46.5721 37.754C46.5961 37.742 46.6201 37.736 46.6441 37.736C46.7641 37.736 46.8541 37.754 46.9141 37.79C46.9861 37.826 47.1301 37.862 47.3461 37.898C47.4661 37.898 47.5501 37.934 47.5981 38.006C47.6581 38.09 47.6881 38.168 47.6881 38.24L48.0661 39.428C48.1021 39.62 47.9221 39.746 47.5261 39.806C47.2981 39.854 46.8601 39.878 46.2121 39.878H44.8981C44.7301 39.878 44.6041 39.89 44.5201 39.914C44.4361 39.926 44.3821 39.968 44.3581 40.04C44.3101 40.1 44.2861 40.196 44.2861 40.328V40.4C44.2861 40.46 44.2921 40.502 44.3041 40.526L44.2861 40.922C44.2741 41.006 44.2681 41.132 44.2681 41.3V41.75C44.8081 41.75 45.3601 41.732 45.9241 41.696C46.4761 41.66 47.0221 41.642 47.5621 41.642C47.5981 41.642 47.6281 41.672 47.6521 41.732C47.6761 41.78 47.6881 41.84 47.6881 41.912C47.7121 41.984 47.7241 42.062 47.7241 42.146C47.7481 42.326 47.7841 42.494 47.8321 42.65L47.9581 43.172V43.73L47.8141 43.856H47.6341C47.5021 43.856 47.4181 43.85 47.3821 43.838C47.3461 43.814 47.3041 43.802 47.2561 43.802C47.2321 43.814 47.1961 43.832 47.1481 43.856C47.1001 43.88 47.0581 43.904 47.0221 43.928V43.838L46.8061 43.856H46.5361C46.4881 43.856 46.4521 43.844 46.4281 43.82L46.2841 43.802C45.8401 43.802 45.5281 43.844 45.3481 43.928H39.6421Z" fill="white"/>
<path d="M51.0327 44.234C50.8167 44.234 50.6787 44.018 50.6187 43.586C50.5827 43.406 50.5647 43.244 50.5647 43.1C50.5647 42.908 50.5587 42.788 50.5467 42.74C50.5347 42.392 50.5047 41.84 50.4567 41.084L50.4027 40.4C50.3307 39.344 50.2947 38.564 50.2947 38.06V33.686C50.2947 33.59 50.4027 33.518 50.6187 33.47C50.7387 33.434 50.9067 33.416 51.1227 33.416C51.2667 33.416 51.4227 33.428 51.5907 33.452C51.7587 33.464 51.8847 33.47 51.9687 33.47C52.1487 33.494 52.4307 33.506 52.8147 33.506L52.8867 33.452H53.6787C53.7147 33.488 53.7567 33.506 53.8047 33.506H53.8767C53.8887 33.494 53.9187 33.488 53.9667 33.488C53.9907 33.476 54.0267 33.47 54.0747 33.47C54.0867 33.458 54.0987 33.452 54.1107 33.452C54.1227 33.452 54.1287 33.452 54.1287 33.452C54.1647 33.452 54.2067 33.464 54.2547 33.488C54.3027 33.5 54.3387 33.506 54.3627 33.506H55.6947L55.7487 36.602C55.7487 36.614 55.7367 36.656 55.7127 36.728C55.7007 36.788 55.6887 36.872 55.6767 36.98C55.6407 37.412 55.6227 37.754 55.6227 38.006V41.516L55.5687 42.2C55.5327 42.5 55.5207 42.746 55.5327 42.938C55.5327 43.19 55.5207 43.394 55.4967 43.55C55.4847 43.694 55.4487 43.808 55.3887 43.892C55.3167 43.976 55.2027 44.018 55.0467 44.018L55.0287 44L54.9747 43.982C54.9507 43.982 54.9387 43.988 54.9387 44H54.8487C54.7767 44.024 54.7347 44.042 54.7227 44.054C54.6627 44.054 54.5247 44.036 54.3087 44L54.0567 43.982C53.9967 43.982 53.9607 44.006 53.9487 44.054H52.3467L51.8787 44.144L51.4467 44.198L51.0327 44.234Z" fill="white"/>
<path d="M66.0651 44.198C65.5371 43.682 65.0871 43.16 64.7151 42.632C64.4511 42.284 64.0431 41.666 63.4911 40.778L63.1851 40.292C63.1731 40.28 63.1611 40.274 63.1491 40.274C63.1491 40.262 63.1491 40.256 63.1491 40.256H63.0591L62.9871 40.292C62.9751 40.448 62.9691 40.868 62.9691 41.552C62.9691 41.996 62.9451 42.518 62.8971 43.118L62.8791 43.658C62.8311 43.79 62.8011 43.856 62.7891 43.856H62.6091C61.2891 43.952 60.3291 44 59.7291 44H59.1171C58.9851 44 58.8891 43.994 58.8291 43.982H58.7031L58.1451 43.802L58.1091 43.676C58.0851 43.676 58.0671 43.652 58.0551 43.604C58.0551 43.556 58.0551 43.52 58.0551 43.496C58.0191 42.992 57.9891 42.626 57.9651 42.398C57.9171 41.75 57.8871 41.276 57.8751 40.976C57.8511 40.688 57.8391 40.502 57.8391 40.418L57.7491 39.428L57.7311 38.888C57.7191 38.78 57.7131 38.63 57.7131 38.438V38.276C57.7371 38.216 57.7491 38.12 57.7491 37.988V37.682C57.7611 37.634 57.7671 37.58 57.7671 37.52L57.7491 37.376V37.196C57.7491 37.112 57.7371 37.046 57.7131 36.998V36.89L57.7311 36.44C57.7431 36.356 57.7491 36.23 57.7491 36.062C57.7731 35.702 57.7851 35.36 57.7851 35.036V34.856C57.7731 34.82 57.7671 34.742 57.7671 34.622V34.19C57.7311 34.154 57.7131 34.118 57.7131 34.082C57.7131 33.914 57.8631 33.794 58.1631 33.722C58.3191 33.674 58.5411 33.65 58.8291 33.65C61.6371 33.65 63.7371 33.746 65.1291 33.938C66.4971 34.13 67.4571 34.46 68.0091 34.928C68.2491 35.156 68.4171 35.426 68.5131 35.738C68.6211 36.038 68.6751 36.398 68.6751 36.818C68.6751 37.49 68.4831 38.054 68.0991 38.51C67.8471 38.762 67.5531 38.972 67.2171 39.14C67.2891 39.32 67.4991 39.68 67.8471 40.22C67.9191 40.304 67.9851 40.394 68.0451 40.49C68.1171 40.586 68.2011 40.688 68.2971 40.796C68.5251 41.108 68.7891 41.45 69.0891 41.822C69.1011 41.87 69.1491 41.972 69.2331 42.128C69.2931 42.152 69.3231 42.182 69.3231 42.218C69.3351 42.242 69.3291 42.278 69.3051 42.326C69.2091 42.47 68.9271 42.68 68.4591 42.956C68.3991 43.016 68.3271 43.076 68.2431 43.136C68.0031 43.328 67.6731 43.526 67.2531 43.73C66.8691 43.934 66.5391 44.078 66.2631 44.162C66.1551 44.222 66.0891 44.234 66.0651 44.198ZM62.7891 37.862C62.9451 37.862 63.1551 37.832 63.4191 37.772C63.6711 37.7 63.8511 37.628 63.9591 37.556C64.1391 37.448 64.2951 37.328 64.4271 37.196C64.5591 37.04 64.6251 36.86 64.6251 36.656C64.6251 36.32 64.5231 36.05 64.3191 35.846C64.1391 35.702 63.9171 35.63 63.6531 35.63H62.8791C62.8791 35.786 62.8671 36.032 62.8431 36.368L62.8251 36.746C62.8011 36.986 62.7891 37.358 62.7891 37.862Z" fill="white"/>
<path d="M76.5737 44.234C76.3577 44.234 76.2197 44.018 76.1597 43.586C76.1237 43.406 76.1057 43.244 76.1057 43.1C76.1057 42.908 76.0997 42.788 76.0877 42.74C76.0757 42.392 76.0457 41.84 75.9977 41.084L75.9437 40.4C75.8717 39.344 75.8357 38.564 75.8357 38.06V33.686C75.8357 33.59 75.9437 33.518 76.1597 33.47C76.2797 33.434 76.4477 33.416 76.6637 33.416C76.8077 33.416 76.9637 33.428 77.1317 33.452C77.2997 33.464 77.4257 33.47 77.5097 33.47C77.6897 33.494 77.9717 33.506 78.3557 33.506L78.4277 33.452H79.2197C79.2557 33.488 79.2977 33.506 79.3457 33.506H79.4177C79.4297 33.494 79.4597 33.488 79.5077 33.488C79.5317 33.476 79.5677 33.47 79.6157 33.47C79.6277 33.458 79.6397 33.452 79.6517 33.452C79.6637 33.452 79.6697 33.452 79.6697 33.452C79.7057 33.452 79.7477 33.464 79.7957 33.488C79.8437 33.5 79.8797 33.506 79.9037 33.506H81.2357L81.2897 36.602C81.2897 36.614 81.2777 36.656 81.2537 36.728C81.2417 36.788 81.2297 36.872 81.2177 36.98C81.1817 37.412 81.1637 37.754 81.1637 38.006V41.516L81.1097 42.2C81.0737 42.5 81.0617 42.746 81.0737 42.938C81.0737 43.19 81.0617 43.394 81.0377 43.55C81.0257 43.694 80.9897 43.808 80.9297 43.892C80.8577 43.976 80.7437 44.018 80.5877 44.018L80.5697 44L80.5157 43.982C80.4917 43.982 80.4797 43.988 80.4797 44H80.3897C80.3177 44.024 80.2757 44.042 80.2637 44.054C80.2037 44.054 80.0657 44.036 79.8497 44L79.5977 43.982C79.5377 43.982 79.5017 44.006 79.4897 44.054H77.8877L77.4197 44.144L76.9877 44.198L76.5737 44.234Z" fill="white"/>
<path d="M84.2261 44.054L83.5241 43.856L83.4881 43.748C83.4761 43.748 83.4701 43.688 83.4701 43.568C83.4701 43.412 83.4641 43.286 83.4521 43.19L83.4341 42.506C83.4221 42.362 83.4161 42.134 83.4161 41.822C83.4161 41.522 83.4101 41.3 83.3981 41.156V40.616C83.3261 39.86 83.2901 39.08 83.2901 38.276V37.862C83.2901 37.718 83.2961 37.616 83.3081 37.556V37.286C83.2961 37.25 83.2901 37.19 83.2901 37.106V36.332C83.2901 36.188 83.2961 36.086 83.3081 36.026V35.846L83.3261 35.756V35.522C83.3381 35.402 83.3441 35.24 83.3441 35.036C83.3441 34.88 83.3381 34.742 83.3261 34.622L83.3081 34.208L83.2901 34.136C83.2541 34.112 83.2541 34.094 83.2901 34.082C83.3381 33.89 83.4881 33.752 83.7401 33.668C83.8601 33.62 84.0581 33.596 84.3341 33.596C84.5381 33.596 85.0721 33.578 85.9361 33.542C86.3681 33.518 86.6381 33.506 86.7461 33.506C86.9261 33.494 87.1421 33.488 87.3941 33.488C87.5141 33.5 87.5981 33.524 87.6461 33.56C87.6941 33.584 87.7361 33.632 87.7721 33.704C87.8201 33.776 87.8561 33.83 87.8801 33.866L88.2401 34.388C88.2281 34.376 88.3781 34.592 88.6901 35.036C88.9781 35.504 89.3261 36.032 89.7341 36.62C89.7941 36.716 89.8661 36.824 89.9501 36.944C90.0341 37.064 90.1241 37.202 90.2201 37.358V36.728C90.2321 36.56 90.2381 36.32 90.2381 36.008C90.2381 35.6 90.2501 35.144 90.2741 34.64C90.2741 34.544 90.2801 34.46 90.2921 34.388C90.3041 34.304 90.3101 34.238 90.3101 34.19C90.3101 34.07 90.3161 34.01 90.3281 34.01C90.3761 33.938 90.4601 33.86 90.5801 33.776C90.7241 33.68 90.8741 33.638 91.0301 33.65H92.1101C92.2901 33.65 92.4401 33.656 92.5601 33.668H93.1001C93.2201 33.68 93.4001 33.686 93.6401 33.686H94.2161C94.4561 33.686 94.6361 33.728 94.7561 33.812C94.8281 33.86 94.8761 33.926 94.9001 34.01C94.9241 34.082 94.9361 34.196 94.9361 34.352C94.9361 34.508 94.9301 34.64 94.9181 34.748C94.9061 34.868 94.9001 35.012 94.9001 35.18V35.306C94.9121 35.342 94.9181 35.396 94.9181 35.468V35.936L94.9001 38.006V40.526C94.9001 41.822 94.8881 42.644 94.8641 42.992L94.8101 43.586C94.7501 43.862 94.6661 44.006 94.5581 44.018C94.5341 44.018 94.4981 44.024 94.4501 44.036C94.4141 44.048 94.3721 44.054 94.3241 44.054C93.8921 44.054 93.5741 44.042 93.3701 44.018H91.2641C91.2281 44.03 91.1801 44.036 91.1201 44.036C90.9761 44.036 90.8261 44.006 90.6701 43.946C90.5741 43.922 90.4721 43.856 90.3641 43.748L88.7801 41.516C88.7201 41.432 88.6061 41.294 88.4381 41.102L88.2041 40.886C88.1441 40.826 88.0961 40.796 88.0601 40.796C88.0241 40.796 87.9941 40.814 87.9701 40.85C87.9461 40.874 87.9341 40.898 87.9341 40.922V41.228C87.9221 41.324 87.9161 41.474 87.9161 41.678V42.2C87.9041 42.332 87.8981 42.512 87.8981 42.74V43.442C87.8861 43.466 87.8801 43.502 87.8801 43.55C87.8801 43.562 87.8621 43.658 87.8261 43.838C87.8021 43.886 87.7841 43.916 87.7721 43.928C87.7601 43.94 87.7181 43.946 87.6461 43.946C87.6221 43.934 87.5981 43.928 87.5741 43.928C87.5621 43.928 87.5501 43.928 87.5381 43.928C86.5901 44.012 85.8041 44.054 85.1801 44.054H84.2261Z" fill="white"/>
<path d="M99.1066 44.36L98.6926 44.288C98.2966 44.228 97.9666 44.156 97.7026 44.072C97.5586 44.06 97.4326 44.018 97.3246 43.946C97.2286 43.91 97.1686 43.862 97.1446 43.802L96.7486 41.57V41.48C96.7486 41.396 96.7546 41.336 96.7666 41.3C96.7906 41.252 96.8326 41.222 96.8926 41.21C97.6726 41.51 98.4406 41.66 99.1966 41.66C99.4366 41.66 99.6226 41.666 99.7546 41.678C100.211 41.678 100.541 41.618 100.745 41.498C100.853 41.426 100.907 41.324 100.907 41.192C100.907 41 100.847 40.844 100.727 40.724C100.607 40.592 100.433 40.478 100.205 40.382L99.6286 40.166C99.4606 40.13 99.2686 40.064 99.0526 39.968C99.0526 39.956 99.0466 39.95 99.0346 39.95C99.0226 39.938 99.0106 39.92 98.9986 39.896C98.9506 39.884 98.8486 39.824 98.6926 39.716L98.5846 39.662C98.6086 39.662 98.6206 39.656 98.6206 39.644C98.6206 39.632 98.6026 39.62 98.5666 39.608C98.5306 39.584 98.4586 39.548 98.3506 39.5C98.2546 39.44 98.1706 39.374 98.0986 39.302C97.9906 39.242 97.9366 39.17 97.9366 39.086V38.996C97.6366 38.996 97.3786 38.684 97.1626 38.06C96.9826 37.424 96.8926 36.974 96.8926 36.71C96.8926 35.594 97.3726 34.736 98.3326 34.136C99.1126 33.644 100.187 33.314 101.555 33.146C102.443 33.05 103.547 33.002 104.867 33.002C105.035 33.062 105.167 33.098 105.263 33.11C105.479 33.122 105.623 33.194 105.695 33.326C105.731 33.386 105.761 33.506 105.785 33.686C105.821 33.878 105.857 34.436 105.893 35.36C105.917 35.384 105.929 35.42 105.929 35.468C105.929 35.564 105.797 35.642 105.533 35.702C105.245 35.738 105.059 35.756 104.975 35.756L104.561 35.81C104.093 35.87 103.787 35.912 103.643 35.936C103.151 36.02 102.809 36.17 102.617 36.386C102.497 36.53 102.437 36.68 102.437 36.836C102.437 36.92 102.449 36.986 102.473 37.034C102.497 37.082 102.557 37.136 102.653 37.196C102.761 37.256 103.073 37.406 103.589 37.646C104.141 37.886 104.693 38.198 105.245 38.582C105.713 38.906 106.049 39.338 106.253 39.878C106.361 40.106 106.415 40.406 106.415 40.778C106.415 41.114 106.373 41.402 106.289 41.642C105.977 42.434 105.389 43.082 104.525 43.586C104.117 43.826 103.691 44.012 103.247 44.144C102.803 44.288 102.377 44.36 101.969 44.36L99.3226 44.414L99.1066 44.36Z" fill="white"/>
<path d="M110.467 44.054C110.359 43.886 110.287 43.58 110.251 43.136C110.203 42.74 110.179 42.164 110.179 41.408L110.197 39.428C110.209 38.948 110.215 38.186 110.215 37.142L110.161 37.088H108.379C108.115 37.088 107.941 36.788 107.857 36.188C107.809 35.864 107.785 35.39 107.785 34.766V34.532C107.809 34.448 107.821 34.316 107.821 34.136V33.776L107.839 33.632L107.911 33.56L108.235 33.578H108.595C109.123 33.578 109.525 33.572 109.801 33.56H113.455C113.611 33.572 113.833 33.578 114.121 33.578H114.571C114.619 33.554 114.697 33.542 114.805 33.542C114.889 33.518 114.967 33.506 115.039 33.506C115.267 33.506 115.441 33.518 115.561 33.542C115.801 33.566 115.981 33.578 116.101 33.578L116.569 33.56H117.271C117.631 33.56 117.877 33.566 118.009 33.578L118.261 33.596C118.273 33.608 118.291 33.626 118.315 33.65C118.339 33.662 118.351 33.674 118.351 33.686V36.746C118.351 36.818 118.309 36.896 118.225 36.98C118.153 37.064 118.081 37.118 118.009 37.142C117.613 37.058 117.097 37.016 116.461 37.016H115.777C115.597 37.016 115.477 37.244 115.417 37.7C115.393 37.832 115.381 38.024 115.381 38.276V38.816C115.381 39.056 115.387 39.236 115.399 39.356V39.86C115.399 40.352 115.375 40.808 115.327 41.228C115.303 41.54 115.291 41.768 115.291 41.912C115.267 42.056 115.255 42.254 115.255 42.506C115.255 42.866 115.243 43.166 115.219 43.406C115.207 43.778 115.069 43.976 114.805 44C114.517 44.036 114.349 44.054 114.301 44.054H110.467Z" fill="white"/>
<path d="M128.256 44.198C127.728 43.682 127.278 43.16 126.906 42.632C126.642 42.284 126.234 41.666 125.682 40.778L125.376 40.292C125.364 40.28 125.352 40.274 125.34 40.274C125.34 40.262 125.34 40.256 125.34 40.256H125.25L125.178 40.292C125.166 40.448 125.16 40.868 125.16 41.552C125.16 41.996 125.136 42.518 125.088 43.118L125.07 43.658C125.022 43.79 124.992 43.856 124.98 43.856H124.8C123.48 43.952 122.52 44 121.92 44H121.308C121.176 44 121.08 43.994 121.02 43.982H120.894L120.336 43.802L120.3 43.676C120.276 43.676 120.258 43.652 120.246 43.604C120.246 43.556 120.246 43.52 120.246 43.496C120.21 42.992 120.18 42.626 120.156 42.398C120.108 41.75 120.078 41.276 120.066 40.976C120.042 40.688 120.03 40.502 120.03 40.418L119.94 39.428L119.922 38.888C119.91 38.78 119.904 38.63 119.904 38.438V38.276C119.928 38.216 119.94 38.12 119.94 37.988V37.682C119.952 37.634 119.958 37.58 119.958 37.52L119.94 37.376V37.196C119.94 37.112 119.928 37.046 119.904 36.998V36.89L119.922 36.44C119.934 36.356 119.94 36.23 119.94 36.062C119.964 35.702 119.976 35.36 119.976 35.036V34.856C119.964 34.82 119.958 34.742 119.958 34.622V34.19C119.922 34.154 119.904 34.118 119.904 34.082C119.904 33.914 120.054 33.794 120.354 33.722C120.51 33.674 120.732 33.65 121.02 33.65C123.828 33.65 125.928 33.746 127.32 33.938C128.688 34.13 129.648 34.46 130.2 34.928C130.44 35.156 130.608 35.426 130.704 35.738C130.812 36.038 130.866 36.398 130.866 36.818C130.866 37.49 130.674 38.054 130.29 38.51C130.038 38.762 129.744 38.972 129.408 39.14C129.48 39.32 129.69 39.68 130.038 40.22C130.11 40.304 130.176 40.394 130.236 40.49C130.308 40.586 130.392 40.688 130.488 40.796C130.716 41.108 130.98 41.45 131.28 41.822C131.292 41.87 131.34 41.972 131.424 42.128C131.484 42.152 131.514 42.182 131.514 42.218C131.526 42.242 131.52 42.278 131.496 42.326C131.4 42.47 131.118 42.68 130.65 42.956C130.59 43.016 130.518 43.076 130.434 43.136C130.194 43.328 129.864 43.526 129.444 43.73C129.06 43.934 128.73 44.078 128.454 44.162C128.346 44.222 128.28 44.234 128.256 44.198ZM124.98 37.862C125.136 37.862 125.346 37.832 125.61 37.772C125.862 37.7 126.042 37.628 126.15 37.556C126.33 37.448 126.486 37.328 126.618 37.196C126.75 37.04 126.816 36.86 126.816 36.656C126.816 36.32 126.714 36.05 126.51 35.846C126.33 35.702 126.108 35.63 125.844 35.63H125.07C125.07 35.786 125.058 36.032 125.034 36.368L125.016 36.746C124.992 36.986 124.98 37.358 124.98 37.862Z" fill="white"/>
<path d="M137.058 44.27C136.578 44.294 136.17 44.282 135.834 44.234C135.558 44.174 135.306 44.09 135.078 43.982C134.85 43.874 134.64 43.706 134.448 43.478C134.064 42.998 133.806 42.368 133.674 41.588C133.578 40.952 133.542 40.256 133.566 39.5V38.708C133.566 38.6 133.572 38.516 133.584 38.456V37.592L133.638 37.466C133.638 37.454 133.638 37.436 133.638 37.412C133.65 37.388 133.656 37.346 133.656 37.286C133.692 36.854 133.71 36.506 133.71 36.242L133.746 35.576C133.758 35.276 133.764 34.928 133.764 34.532C133.764 34.376 133.758 34.268 133.746 34.208C133.722 34.064 133.71 33.95 133.71 33.866C133.71 33.686 133.896 33.596 134.268 33.596H134.52C134.664 33.596 134.76 33.584 134.808 33.56L137.004 33.596C137.004 33.596 137.01 33.608 137.022 33.632C137.046 33.644 137.064 33.65 137.076 33.65L137.22 33.596C137.844 33.596 138.246 33.656 138.426 33.776C138.546 33.86 138.63 33.986 138.678 34.154C138.738 34.322 138.768 34.55 138.768 34.838C138.768 35.03 138.78 35.294 138.804 35.63C138.828 35.798 138.84 36.062 138.84 36.422V36.602C138.816 36.95 138.792 37.52 138.768 38.312L138.75 39.176V39.95C138.726 40.094 138.714 40.286 138.714 40.526V41.066C138.702 41.234 138.726 41.468 138.786 41.768C138.846 41.864 138.9 41.912 138.948 41.912C139.02 41.912 139.29 41.822 139.758 41.642L140.19 41.426C140.31 41.378 140.37 41.33 140.37 41.282V35.36C140.334 35.108 140.316 34.91 140.316 34.766C140.304 34.706 140.298 34.616 140.298 34.496V34.046C140.298 33.902 140.328 33.8 140.388 33.74C140.412 33.704 140.472 33.686 140.568 33.686C140.592 33.686 140.616 33.698 140.64 33.722C140.664 33.734 140.676 33.752 140.676 33.776V33.812C140.796 33.764 141.054 33.722 141.45 33.686C141.774 33.65 142.134 33.632 142.53 33.632H143.61L145.5 33.686C145.524 33.686 145.542 33.692 145.554 33.704C145.578 33.716 145.59 33.728 145.59 33.74C145.602 33.74 145.608 33.746 145.608 33.758C145.608 33.77 145.608 33.776 145.608 33.776V33.866C145.596 33.866 145.59 33.884 145.59 33.92L145.68 33.902C145.692 33.878 145.71 33.866 145.734 33.866C145.77 33.866 145.788 33.896 145.788 33.956C145.788 36.056 145.776 37.802 145.752 39.194C145.74 40.574 145.692 41.972 145.608 43.388C145.608 43.448 145.56 43.538 145.464 43.658C145.416 43.718 145.374 43.766 145.338 43.802C145.326 43.826 145.308 43.844 145.284 43.856C145.26 43.868 145.242 43.88 145.23 43.892C145.218 43.88 145.176 43.868 145.104 43.856C145.032 43.832 144.972 43.82 144.924 43.82L144.87 43.856C144.846 43.88 144.822 43.892 144.798 43.892C144.318 43.976 143.562 44.018 142.53 44.018H141.738C141.438 44.018 141.174 43.994 140.946 43.946C140.862 43.886 140.772 43.736 140.676 43.496C140.664 43.412 140.64 43.34 140.604 43.28C140.58 43.22 140.55 43.19 140.514 43.19C140.418 43.19 140.268 43.256 140.064 43.388C140.04 43.412 140.004 43.442 139.956 43.478C139.92 43.502 139.884 43.532 139.848 43.568C139.752 43.64 139.686 43.7 139.65 43.748C139.326 43.928 138.942 44.06 138.498 44.144C138.198 44.216 137.922 44.252 137.67 44.252C137.394 44.252 137.19 44.258 137.058 44.27Z" fill="white"/>
<path d="M149.637 44.054C149.529 44.054 149.445 44.042 149.385 44.018H148.665L147.981 43.856L147.927 43.73V43.55L147.909 43.064C147.885 42.848 147.873 42.662 147.873 42.506L147.855 41.138C147.843 41.006 147.837 40.826 147.837 40.598C147.837 40.046 147.855 39.512 147.891 38.996C147.915 38.66 147.927 38.12 147.927 37.376C147.927 37.256 147.915 37.154 147.891 37.07V36.89L147.873 36.782C147.873 36.506 147.891 36.236 147.927 35.972L147.945 35.018L147.927 34.586V34.172C147.891 34.136 147.873 34.094 147.873 34.046C147.873 33.866 148.017 33.734 148.305 33.65C148.473 33.602 148.683 33.578 148.935 33.578H151.563L152.787 33.596C152.787 33.596 152.793 33.602 152.805 33.614C152.829 33.626 152.853 33.644 152.877 33.668C152.973 33.764 153.069 33.89 153.165 34.046C153.273 34.226 153.363 34.418 153.435 34.622C153.519 34.862 153.681 35.282 153.921 35.882C154.113 36.374 154.275 36.764 154.407 37.052C154.503 37.364 154.611 37.52 154.731 37.52C154.839 37.52 154.923 37.442 154.983 37.286C155.007 37.262 155.043 37.184 155.091 37.052L155.379 36.386C155.403 36.338 155.487 36.158 155.631 35.846C155.667 35.786 155.769 35.57 155.937 35.198L156.207 34.622C156.231 34.55 156.267 34.46 156.315 34.352C156.363 34.244 156.417 34.142 156.477 34.046C156.597 33.854 156.693 33.728 156.765 33.668C156.789 33.62 156.825 33.596 156.873 33.596L158.097 33.578H161.301C161.349 33.59 161.457 33.596 161.625 33.596C161.637 33.596 161.661 33.674 161.697 33.83C161.733 34.442 161.751 34.934 161.751 35.306C161.775 35.762 161.787 36.452 161.787 37.376V38.276C161.787 38.816 161.739 39.59 161.643 40.598V41.138C161.655 41.294 161.661 41.51 161.661 41.786L161.679 42.542C161.691 42.686 161.697 42.878 161.697 43.118C161.697 43.334 161.703 43.478 161.715 43.55V43.73L161.661 43.856L160.977 44.018H160.275C160.203 44.042 160.113 44.054 160.005 44.054C159.537 44.054 159.057 44.036 158.565 44C158.073 43.952 157.767 43.922 157.647 43.91L157.575 43.928H157.485C157.413 43.928 157.377 43.814 157.377 43.586C157.317 43.274 157.287 42.584 157.287 41.516C157.263 41.216 157.251 40.808 157.251 40.292C157.251 40.208 157.209 40.166 157.125 40.166C157.089 40.166 157.053 40.214 157.017 40.31C156.837 40.742 156.729 41.012 156.693 41.12L156.567 41.498L156.423 41.786C156.207 42.266 155.973 42.638 155.721 42.902C155.565 43.058 155.403 43.136 155.235 43.136H154.677C154.521 43.136 154.407 43.13 154.335 43.118C154.203 43.118 154.107 43.112 154.047 43.1C153.627 42.452 153.237 41.738 152.877 40.958C152.829 40.814 152.781 40.694 152.733 40.598C152.697 40.502 152.667 40.418 152.643 40.346C152.559 40.226 152.517 40.166 152.517 40.166C152.433 40.166 152.391 40.208 152.391 40.292V41.012C152.391 41.744 152.385 42.272 152.373 42.596C152.373 43.112 152.337 43.496 152.265 43.748C152.253 43.796 152.235 43.838 152.211 43.874C152.199 43.91 152.181 43.928 152.157 43.928H152.067L151.995 43.91C151.887 43.922 151.587 43.952 151.095 44C150.615 44.036 150.129 44.054 149.637 44.054Z" fill="white"/>
<path d="M164.535 43.928C164.511 43.928 164.493 43.904 164.481 43.856C164.397 43.748 164.337 43.616 164.301 43.46C164.265 43.4 164.235 43.322 164.211 43.226C164.103 43.01 164.025 42.71 163.977 42.326C163.929 41.774 163.905 41.336 163.905 41.012C163.893 40.868 163.887 40.67 163.887 40.418V39.986C163.887 39.626 163.881 39.344 163.869 39.14C163.857 38.924 163.851 38.498 163.851 37.862C163.851 36.158 163.887 34.844 163.959 33.92C163.959 33.776 164.163 33.668 164.571 33.596H165.561C166.245 33.596 166.755 33.608 167.091 33.632C167.595 33.668 168.105 33.686 168.621 33.686C168.741 33.686 168.831 33.68 168.891 33.668H169.161L169.251 33.74C169.647 33.656 170.055 33.602 170.475 33.578C170.895 33.554 171.405 33.542 172.005 33.542C172.029 33.542 172.059 33.56 172.095 33.596H172.671C172.767 33.596 172.839 33.65 172.887 33.758C172.947 33.866 172.995 34.022 173.031 34.226C173.079 34.382 173.115 34.574 173.139 34.802C173.187 35.102 173.229 35.3 173.265 35.396C173.265 35.732 173.205 35.9 173.085 35.9C173.073 35.9 173.055 35.882 173.031 35.846L172.959 35.828C172.899 35.816 172.833 35.822 172.761 35.846C172.689 35.882 172.611 35.9 172.527 35.9C172.455 35.9 172.395 35.882 172.347 35.846C172.323 35.834 172.269 35.828 172.185 35.828C172.077 35.828 171.951 35.846 171.807 35.882C171.759 35.894 171.663 35.912 171.519 35.936C171.387 35.96 171.231 35.972 171.051 35.972C170.535 35.972 170.163 35.984 169.935 36.008C169.803 36.02 169.677 36.056 169.557 36.116V36.08C169.509 36.08 169.467 36.14 169.431 36.26C169.347 36.464 169.293 36.746 169.269 37.106C169.257 37.214 169.251 37.334 169.251 37.466C169.251 37.598 169.269 37.688 169.305 37.736C169.353 37.784 169.425 37.808 169.521 37.808C169.593 37.808 169.653 37.784 169.701 37.736C169.725 37.736 169.755 37.742 169.791 37.754C169.827 37.766 169.857 37.784 169.881 37.808H171.411C171.423 37.784 171.441 37.766 171.465 37.754C171.489 37.742 171.513 37.736 171.537 37.736C171.657 37.736 171.747 37.754 171.807 37.79C171.879 37.826 172.023 37.862 172.239 37.898C172.359 37.898 172.443 37.934 172.491 38.006C172.551 38.09 172.581 38.168 172.581 38.24L172.959 39.428C172.995 39.62 172.815 39.746 172.419 39.806C172.191 39.854 171.753 39.878 171.105 39.878H169.791C169.623 39.878 169.497 39.89 169.413 39.914C169.329 39.926 169.275 39.968 169.251 40.04C169.203 40.1 169.179 40.196 169.179 40.328V40.4C169.179 40.46 169.185 40.502 169.197 40.526L169.179 40.922C169.167 41.006 169.161 41.132 169.161 41.3V41.75C169.701 41.75 170.253 41.732 170.817 41.696C171.369 41.66 171.915 41.642 172.455 41.642C172.491 41.642 172.521 41.672 172.545 41.732C172.569 41.78 172.581 41.84 172.581 41.912C172.605 41.984 172.617 42.062 172.617 42.146C172.641 42.326 172.677 42.494 172.725 42.65L172.851 43.172V43.73L172.707 43.856H172.527C172.395 43.856 172.311 43.85 172.275 43.838C172.239 43.814 172.197 43.802 172.149 43.802C172.125 43.814 172.089 43.832 172.041 43.856C171.993 43.88 171.951 43.904 171.915 43.928V43.838L171.699 43.856H171.429C171.381 43.856 171.345 43.844 171.321 43.82L171.177 43.802C170.733 43.802 170.421 43.844 170.241 43.928H164.535Z" fill="white"/>
<path d="M176.177 44.054L175.475 43.856L175.439 43.748C175.427 43.748 175.421 43.688 175.421 43.568C175.421 43.412 175.415 43.286 175.403 43.19L175.385 42.506C175.373 42.362 175.367 42.134 175.367 41.822C175.367 41.522 175.361 41.3 175.349 41.156V40.616C175.277 39.86 175.241 39.08 175.241 38.276V37.862C175.241 37.718 175.247 37.616 175.259 37.556V37.286C175.247 37.25 175.241 37.19 175.241 37.106V36.332C175.241 36.188 175.247 36.086 175.259 36.026V35.846L175.277 35.756V35.522C175.289 35.402 175.295 35.24 175.295 35.036C175.295 34.88 175.289 34.742 175.277 34.622L175.259 34.208L175.241 34.136C175.205 34.112 175.205 34.094 175.241 34.082C175.289 33.89 175.439 33.752 175.691 33.668C175.811 33.62 176.009 33.596 176.285 33.596C176.489 33.596 177.023 33.578 177.887 33.542C178.319 33.518 178.589 33.506 178.697 33.506C178.877 33.494 179.093 33.488 179.345 33.488C179.465 33.5 179.549 33.524 179.597 33.56C179.645 33.584 179.687 33.632 179.723 33.704C179.771 33.776 179.807 33.83 179.831 33.866L180.191 34.388C180.179 34.376 180.329 34.592 180.641 35.036C180.929 35.504 181.277 36.032 181.685 36.62C181.745 36.716 181.817 36.824 181.901 36.944C181.985 37.064 182.075 37.202 182.171 37.358V36.728C182.183 36.56 182.189 36.32 182.189 36.008C182.189 35.6 182.201 35.144 182.225 34.64C182.225 34.544 182.231 34.46 182.243 34.388C182.255 34.304 182.261 34.238 182.261 34.19C182.261 34.07 182.267 34.01 182.279 34.01C182.327 33.938 182.411 33.86 182.531 33.776C182.675 33.68 182.825 33.638 182.981 33.65H184.061C184.241 33.65 184.391 33.656 184.511 33.668H185.051C185.171 33.68 185.351 33.686 185.591 33.686H186.167C186.407 33.686 186.587 33.728 186.707 33.812C186.779 33.86 186.827 33.926 186.851 34.01C186.875 34.082 186.887 34.196 186.887 34.352C186.887 34.508 186.881 34.64 186.869 34.748C186.857 34.868 186.851 35.012 186.851 35.18V35.306C186.863 35.342 186.869 35.396 186.869 35.468V35.936L186.851 38.006V40.526C186.851 41.822 186.839 42.644 186.815 42.992L186.761 43.586C186.701 43.862 186.617 44.006 186.509 44.018C186.485 44.018 186.449 44.024 186.401 44.036C186.365 44.048 186.323 44.054 186.275 44.054C185.843 44.054 185.525 44.042 185.321 44.018H183.215C183.179 44.03 183.131 44.036 183.071 44.036C182.927 44.036 182.777 44.006 182.621 43.946C182.525 43.922 182.423 43.856 182.315 43.748L180.731 41.516C180.671 41.432 180.557 41.294 180.389 41.102L180.155 40.886C180.095 40.826 180.047 40.796 180.011 40.796C179.975 40.796 179.945 40.814 179.921 40.85C179.897 40.874 179.885 40.898 179.885 40.922V41.228C179.873 41.324 179.867 41.474 179.867 41.678V42.2C179.855 42.332 179.849 42.512 179.849 42.74V43.442C179.837 43.466 179.831 43.502 179.831 43.55C179.831 43.562 179.813 43.658 179.777 43.838C179.753 43.886 179.735 43.916 179.723 43.928C179.711 43.94 179.669 43.946 179.597 43.946C179.573 43.934 179.549 43.928 179.525 43.928C179.513 43.928 179.501 43.928 179.489 43.928C178.541 44.012 177.755 44.054 177.131 44.054H176.177Z" fill="white"/>
<path d="M191.256 44.054C191.148 43.886 191.076 43.58 191.04 43.136C190.992 42.74 190.968 42.164 190.968 41.408L190.986 39.428C190.998 38.948 191.004 38.186 191.004 37.142L190.95 37.088H189.168C188.904 37.088 188.73 36.788 188.646 36.188C188.598 35.864 188.574 35.39 188.574 34.766V34.532C188.598 34.448 188.61 34.316 188.61 34.136V33.776L188.628 33.632L188.7 33.56L189.024 33.578H189.384C189.912 33.578 190.314 33.572 190.59 33.56H194.244C194.4 33.572 194.622 33.578 194.91 33.578H195.36C195.408 33.554 195.486 33.542 195.594 33.542C195.678 33.518 195.756 33.506 195.828 33.506C196.056 33.506 196.23 33.518 196.35 33.542C196.59 33.566 196.77 33.578 196.89 33.578L197.358 33.56H198.06C198.42 33.56 198.666 33.566 198.798 33.578L199.05 33.596C199.062 33.608 199.08 33.626 199.104 33.65C199.128 33.662 199.14 33.674 199.14 33.686V36.746C199.14 36.818 199.098 36.896 199.014 36.98C198.942 37.064 198.87 37.118 198.798 37.142C198.402 37.058 197.886 37.016 197.25 37.016H196.566C196.386 37.016 196.266 37.244 196.206 37.7C196.182 37.832 196.17 38.024 196.17 38.276V38.816C196.17 39.056 196.176 39.236 196.188 39.356V39.86C196.188 40.352 196.164 40.808 196.116 41.228C196.092 41.54 196.08 41.768 196.08 41.912C196.056 42.056 196.044 42.254 196.044 42.506C196.044 42.866 196.032 43.166 196.008 43.406C195.996 43.778 195.858 43.976 195.594 44C195.306 44.036 195.138 44.054 195.09 44.054H191.256Z" fill="white"/>
<defs>
<filter id="filter0_d" x="202" y="14" width="394" height="40.0001" filterUnits="userSpaceOnUse" color-interpolation-filters="sRGB">
<feFlood flood-opacity="0" result="BackgroundImageFix"/>
<feColorMatrix in="SourceAlpha" type="matrix" values="0 0 0 0 0 0 0 0 0 0 0 0 0 0 0 0 0 0 127 0" result="hardAlpha"/>
<feOffset dy="4"/>
<feGaussianBlur stdDeviation="2"/>
<feComposite in2="hardAlpha" operator="out"/>
<feColorMatrix type="matrix" values="0 0 0 0 0 0 0 0 0 0 0 0 0 0 0 0 0 0 0.25 0"/>
<feBlend mode="normal" in2="BackgroundImageFix" result="effect1_dropShadow"/>
<feBlend mode="normal" in="SourceGraphic" in2="effect1_dropShadow" result="shape"/>
</filter>
</defs>
</svg>
