<svg width="605" height="127" viewBox="0 0 605 127" fill="none" xmlns="http://www.w3.org/2000/svg">
<path d="M0 19C0 8.50659 8.50659 0 19 0H586C596.493 0 605 8.50659 605 19V108C605 118.493 596.493 127 586 127H19C8.5066 127 0 118.493 0 108V19Z" fill="black"/>
<path d="M17.132 44.054C17.012 44.054 16.916 44.042 16.844 44.018H16.034L15.224 43.82L15.152 43.676C15.14 43.676 15.134 43.61 15.134 43.478C15.134 43.31 15.128 43.172 15.116 43.064L15.098 42.236C15.086 42.056 15.08 41.786 15.08 41.426L15.044 40.04C15.044 39.74 15.056 39.326 15.08 38.798L15.098 38.186C15.122 37.802 15.134 37.172 15.134 36.296V35.936C15.11 35.9 15.098 35.834 15.098 35.738L15.08 35.612C15.08 35.312 15.098 35 15.134 34.676C15.158 34.268 15.17 33.896 15.17 33.56L15.152 33.056C15.14 32.924 15.134 32.768 15.134 32.588C15.134 32.576 15.122 32.558 15.098 32.534C15.086 32.51 15.08 32.486 15.08 32.462C15.08 32.342 15.128 32.24 15.224 32.156C15.32 32.072 15.44 32.012 15.584 31.976C15.776 31.916 16.022 31.886 16.322 31.886H20.768C20.78 31.886 20.798 31.898 20.822 31.922C20.846 31.946 20.87 31.964 20.894 31.976C20.99 32.06 21.11 32.222 21.254 32.462C21.29 32.534 21.326 32.618 21.362 32.714C21.41 32.798 21.47 32.936 21.542 33.128C21.626 33.32 21.74 33.614 21.884 34.01L22.1 34.568C22.196 34.748 22.304 35.006 22.424 35.342C22.46 35.438 22.496 35.534 22.532 35.63C22.58 35.726 22.622 35.822 22.658 35.918C22.682 36.002 22.706 36.068 22.73 36.116C22.766 36.152 22.784 36.176 22.784 36.188C22.868 36.38 22.958 36.476 23.054 36.476C23.174 36.476 23.27 36.38 23.342 36.188C23.354 36.176 23.366 36.152 23.378 36.116C23.39 36.068 23.42 35.996 23.468 35.9L23.738 35.306L24.458 33.776L24.764 33.128C24.8 33.032 24.824 32.954 24.836 32.894C24.86 32.822 24.884 32.774 24.908 32.75C24.956 32.642 25.07 32.456 25.25 32.192C25.31 32.096 25.364 32.024 25.412 31.976C25.448 31.964 25.472 31.946 25.484 31.922C25.496 31.898 25.514 31.886 25.538 31.886H31.064C31.088 31.886 31.118 31.976 31.154 32.156L31.208 33.92C31.232 34.424 31.244 35.216 31.244 36.296V37.34C31.244 37.748 31.226 38.204 31.19 38.708C31.154 39.212 31.13 39.536 31.118 39.68L31.082 40.04V40.67C31.094 40.838 31.1 41.09 31.1 41.426C31.1 41.786 31.106 42.056 31.118 42.236C31.118 42.584 31.13 42.824 31.154 42.956V43.676L31.1 43.82L30.29 44.018H29.48C29.396 44.042 29.294 44.054 29.174 44.054C28.958 44.054 28.658 44.042 28.274 44.018L27.824 44C27.74 43.988 27.644 43.976 27.536 43.964C27.428 43.952 27.296 43.946 27.14 43.946L26.438 43.892C26.414 43.892 26.396 43.898 26.384 43.91H26.24C26.18 43.91 26.144 43.844 26.132 43.712C26.06 43.472 26.024 43.064 26.024 42.488C26.024 42.104 26.018 41.804 26.006 41.588L25.988 40.616C25.976 40.4 25.97 40.088 25.97 39.68C25.97 39.584 25.928 39.536 25.844 39.536C25.796 39.536 25.748 39.596 25.7 39.716L25.502 40.202L25.34 40.652C25.316 40.724 25.292 40.796 25.268 40.868C25.244 40.94 25.214 41.006 25.178 41.066L25.088 41.282C24.98 41.522 24.842 41.792 24.674 42.092C24.494 42.416 24.272 42.674 24.008 42.866C23.864 42.95 23.738 42.992 23.63 42.992H23.36C23.216 42.992 23.096 42.98 23 42.956H22.244C21.764 42.188 21.314 41.348 20.894 40.436L20.624 39.77C20.552 39.614 20.504 39.536 20.48 39.536C20.396 39.536 20.354 39.584 20.354 39.68V40.526C20.354 41.366 20.342 41.984 20.318 42.38C20.294 43.004 20.252 43.436 20.192 43.676C20.18 43.832 20.144 43.91 20.084 43.91H19.958L19.868 43.892C19.46 43.916 19.136 43.94 18.896 43.964C18.752 43.976 18.5 43.994 18.14 44.018C17.78 44.042 17.444 44.054 17.132 44.054Z" fill="white"/>
<path d="M39.3377 46.232C39.2657 46.232 39.0857 46.184 38.7977 46.088C38.7497 46.076 38.6777 46.046 38.5817 45.998C38.4977 45.962 38.4197 45.944 38.3477 45.944C38.2997 45.944 38.2157 45.914 38.0957 45.854C38.0117 45.794 37.9337 45.764 37.8617 45.764L37.6457 45.71C37.5737 45.71 37.5257 45.704 37.5017 45.692C37.4657 45.692 37.4477 45.686 37.4477 45.674C37.0637 45.59 36.6737 45.452 36.2777 45.26L35.1077 44.774C35.0237 44.738 34.9817 44.678 34.9817 44.594C34.9817 44.522 34.9997 44.45 35.0357 44.378L35.5217 43.532C35.6417 43.304 35.8097 43.034 36.0257 42.722C36.1097 42.638 36.1937 42.488 36.2777 42.272C36.3497 42.104 36.3857 42.002 36.3857 41.966C36.2057 41.618 35.9777 41.246 35.7017 40.85C35.4257 40.37 35.2037 40.052 35.0357 39.896C35.0117 39.836 34.9577 39.74 34.8737 39.608C34.6817 39.272 34.5917 39.116 34.6037 39.14L34.2977 38.6C34.2137 38.48 34.1117 38.3 33.9917 38.06C33.9197 37.94 33.8417 37.79 33.7577 37.61C33.6497 37.43 33.5897 37.322 33.5777 37.286C33.4817 37.178 33.3197 36.89 33.0917 36.422C32.8757 35.942 32.7677 35.654 32.7677 35.558C32.7677 35.51 32.8157 35.45 32.9117 35.378C33.0077 35.294 33.1157 35.21 33.2357 35.126C33.6197 34.946 33.8717 34.838 33.9917 34.802C34.1477 34.73 34.2797 34.67 34.3877 34.622C34.5077 34.574 34.6037 34.532 34.6757 34.496C34.9517 34.364 35.3357 34.202 35.8277 34.01C35.9237 33.962 36.1517 33.866 36.5117 33.722C36.6437 33.686 36.7637 33.668 36.8717 33.668C36.9437 33.668 37.0037 33.692 37.0517 33.74C37.0997 33.764 37.1717 33.86 37.2677 34.028L37.8977 35.396C38.2577 36.152 38.5097 36.662 38.6537 36.926C38.6777 36.962 38.7017 37.01 38.7257 37.07C38.7497 37.118 38.7737 37.154 38.7977 37.178C38.8697 37.274 38.9357 37.322 38.9957 37.322C39.0317 37.322 39.0617 37.304 39.0857 37.268C39.1217 37.232 39.1457 37.202 39.1577 37.178L40.3817 33.956C40.4297 33.8 40.5317 33.68 40.6877 33.596C40.8197 33.512 40.9817 33.482 41.1737 33.506C41.9537 33.758 42.5297 33.962 42.9017 34.118C43.6337 34.418 44.1737 34.682 44.5217 34.91C44.6417 34.97 44.7197 35.048 44.7557 35.144C44.8037 35.228 44.8097 35.312 44.7737 35.396C44.7617 35.504 44.7317 35.594 44.6837 35.666L44.5757 35.882L41.6957 42.128L41.5517 42.488L39.7877 45.854C39.7037 45.998 39.6257 46.094 39.5537 46.142C39.4937 46.202 39.4217 46.232 39.3377 46.232Z" fill="white"/>
<path d="M51.8335 44.234C51.6175 44.234 51.4795 44.018 51.4195 43.586C51.3835 43.406 51.3655 43.244 51.3655 43.1C51.3655 42.908 51.3595 42.788 51.3475 42.74C51.3355 42.392 51.3055 41.84 51.2575 41.084L51.2035 40.4C51.1315 39.344 51.0955 38.564 51.0955 38.06V33.686C51.0955 33.59 51.2035 33.518 51.4195 33.47C51.5395 33.434 51.7075 33.416 51.9235 33.416C52.0675 33.416 52.2235 33.428 52.3915 33.452C52.5595 33.464 52.6855 33.47 52.7695 33.47C52.9495 33.494 53.2315 33.506 53.6155 33.506L53.6875 33.452H54.4795C54.5155 33.488 54.5575 33.506 54.6055 33.506H54.6775C54.6895 33.494 54.7195 33.488 54.7675 33.488C54.7915 33.476 54.8275 33.47 54.8755 33.47C54.8875 33.458 54.8995 33.452 54.9115 33.452C54.9235 33.452 54.9295 33.452 54.9295 33.452C54.9655 33.452 55.0075 33.464 55.0555 33.488C55.1035 33.5 55.1395 33.506 55.1635 33.506H56.4955L56.5495 36.602C56.5495 36.614 56.5375 36.656 56.5135 36.728C56.5015 36.788 56.4895 36.872 56.4775 36.98C56.4415 37.412 56.4235 37.754 56.4235 38.006V41.516L56.3695 42.2C56.3335 42.5 56.3215 42.746 56.3335 42.938C56.3335 43.19 56.3215 43.394 56.2975 43.55C56.2855 43.694 56.2495 43.808 56.1895 43.892C56.1175 43.976 56.0035 44.018 55.8475 44.018L55.8295 44L55.7755 43.982C55.7515 43.982 55.7395 43.988 55.7395 44H55.6495C55.5775 44.024 55.5355 44.042 55.5235 44.054C55.4635 44.054 55.3255 44.036 55.1095 44L54.8575 43.982C54.7975 43.982 54.7615 44.006 54.7495 44.054H53.1475L52.6795 44.144L52.2475 44.198L51.8335 44.234Z" fill="white"/>
<path d="M59.4859 44.054L58.7839 43.856L58.7479 43.748C58.7359 43.748 58.7299 43.688 58.7299 43.568C58.7299 43.412 58.7239 43.286 58.7119 43.19L58.6939 42.506C58.6819 42.362 58.6759 42.134 58.6759 41.822C58.6759 41.522 58.6699 41.3 58.6579 41.156V40.616C58.5859 39.86 58.5499 39.08 58.5499 38.276V37.862C58.5499 37.718 58.5559 37.616 58.5679 37.556V37.286C58.5559 37.25 58.5499 37.19 58.5499 37.106V36.332C58.5499 36.188 58.5559 36.086 58.5679 36.026V35.846L58.5859 35.756V35.522C58.5979 35.402 58.6039 35.24 58.6039 35.036C58.6039 34.88 58.5979 34.742 58.5859 34.622L58.5679 34.208L58.5499 34.136C58.5139 34.112 58.5139 34.094 58.5499 34.082C58.5979 33.89 58.7479 33.752 58.9999 33.668C59.1199 33.62 59.3179 33.596 59.5939 33.596C59.7979 33.596 60.3319 33.578 61.1959 33.542C61.6279 33.518 61.8979 33.506 62.0059 33.506C62.1859 33.494 62.4019 33.488 62.6539 33.488C62.7739 33.5 62.8579 33.524 62.9059 33.56C62.9539 33.584 62.9959 33.632 63.0319 33.704C63.0799 33.776 63.1159 33.83 63.1399 33.866L63.4999 34.388C63.4879 34.376 63.6379 34.592 63.9499 35.036C64.2379 35.504 64.5859 36.032 64.9939 36.62C65.0539 36.716 65.1259 36.824 65.2099 36.944C65.2939 37.064 65.3839 37.202 65.4799 37.358V36.728C65.4919 36.56 65.4979 36.32 65.4979 36.008C65.4979 35.6 65.5099 35.144 65.5339 34.64C65.5339 34.544 65.5399 34.46 65.5519 34.388C65.5639 34.304 65.5699 34.238 65.5699 34.19C65.5699 34.07 65.5759 34.01 65.5879 34.01C65.6359 33.938 65.7199 33.86 65.8399 33.776C65.9839 33.68 66.1339 33.638 66.2899 33.65H67.3699C67.5499 33.65 67.6999 33.656 67.8199 33.668H68.3599C68.4799 33.68 68.6599 33.686 68.8999 33.686H69.4759C69.7159 33.686 69.8959 33.728 70.0159 33.812C70.0879 33.86 70.1359 33.926 70.1599 34.01C70.1839 34.082 70.1959 34.196 70.1959 34.352C70.1959 34.508 70.1899 34.64 70.1779 34.748C70.1659 34.868 70.1599 35.012 70.1599 35.18V35.306C70.1719 35.342 70.1779 35.396 70.1779 35.468V35.936L70.1599 38.006V40.526C70.1599 41.822 70.1479 42.644 70.1239 42.992L70.0699 43.586C70.0099 43.862 69.9259 44.006 69.8179 44.018C69.7939 44.018 69.7579 44.024 69.7099 44.036C69.6739 44.048 69.6319 44.054 69.5839 44.054C69.1519 44.054 68.8339 44.042 68.6299 44.018H66.5239C66.4879 44.03 66.4399 44.036 66.3799 44.036C66.2359 44.036 66.0859 44.006 65.9299 43.946C65.8339 43.922 65.7319 43.856 65.6239 43.748L64.0399 41.516C63.9799 41.432 63.8659 41.294 63.6979 41.102L63.4639 40.886C63.4039 40.826 63.3559 40.796 63.3199 40.796C63.2839 40.796 63.2539 40.814 63.2299 40.85C63.2059 40.874 63.1939 40.898 63.1939 40.922V41.228C63.1819 41.324 63.1759 41.474 63.1759 41.678V42.2C63.1639 42.332 63.1579 42.512 63.1579 42.74V43.442C63.1459 43.466 63.1399 43.502 63.1399 43.55C63.1399 43.562 63.1219 43.658 63.0859 43.838C63.0619 43.886 63.0439 43.916 63.0319 43.928C63.0199 43.94 62.9779 43.946 62.9059 43.946C62.8819 43.934 62.8579 43.928 62.8339 43.928C62.8219 43.928 62.8099 43.928 62.7979 43.928C61.8499 44.012 61.0639 44.054 60.4399 44.054H59.4859Z" fill="white"/>
<path d="M74.3664 44.36L73.9524 44.288C73.5564 44.228 73.2264 44.156 72.9624 44.072C72.8184 44.06 72.6924 44.018 72.5844 43.946C72.4884 43.91 72.4284 43.862 72.4044 43.802L72.0084 41.57V41.48C72.0084 41.396 72.0144 41.336 72.0264 41.3C72.0504 41.252 72.0924 41.222 72.1524 41.21C72.9324 41.51 73.7004 41.66 74.4564 41.66C74.6964 41.66 74.8824 41.666 75.0144 41.678C75.4704 41.678 75.8004 41.618 76.0044 41.498C76.1124 41.426 76.1664 41.324 76.1664 41.192C76.1664 41 76.1064 40.844 75.9864 40.724C75.8664 40.592 75.6924 40.478 75.4644 40.382L74.8884 40.166C74.7204 40.13 74.5284 40.064 74.3124 39.968C74.3124 39.956 74.3064 39.95 74.2944 39.95C74.2824 39.938 74.2704 39.92 74.2584 39.896C74.2104 39.884 74.1084 39.824 73.9524 39.716L73.8444 39.662C73.8684 39.662 73.8804 39.656 73.8804 39.644C73.8804 39.632 73.8624 39.62 73.8264 39.608C73.7904 39.584 73.7184 39.548 73.6104 39.5C73.5144 39.44 73.4304 39.374 73.3584 39.302C73.2504 39.242 73.1964 39.17 73.1964 39.086V38.996C72.8964 38.996 72.6384 38.684 72.4224 38.06C72.2424 37.424 72.1524 36.974 72.1524 36.71C72.1524 35.594 72.6324 34.736 73.5924 34.136C74.3724 33.644 75.4464 33.314 76.8144 33.146C77.7024 33.05 78.8064 33.002 80.1264 33.002C80.2944 33.062 80.4264 33.098 80.5224 33.11C80.7384 33.122 80.8824 33.194 80.9544 33.326C80.9904 33.386 81.0204 33.506 81.0444 33.686C81.0804 33.878 81.1164 34.436 81.1524 35.36C81.1764 35.384 81.1884 35.42 81.1884 35.468C81.1884 35.564 81.0564 35.642 80.7924 35.702C80.5044 35.738 80.3184 35.756 80.2344 35.756L79.8204 35.81C79.3524 35.87 79.0464 35.912 78.9024 35.936C78.4104 36.02 78.0684 36.17 77.8764 36.386C77.7564 36.53 77.6964 36.68 77.6964 36.836C77.6964 36.92 77.7084 36.986 77.7324 37.034C77.7564 37.082 77.8164 37.136 77.9124 37.196C78.0204 37.256 78.3324 37.406 78.8484 37.646C79.4004 37.886 79.9524 38.198 80.5044 38.582C80.9724 38.906 81.3084 39.338 81.5124 39.878C81.6204 40.106 81.6744 40.406 81.6744 40.778C81.6744 41.114 81.6324 41.402 81.5484 41.642C81.2364 42.434 80.6484 43.082 79.7844 43.586C79.3764 43.826 78.9504 44.012 78.5064 44.144C78.0624 44.288 77.6364 44.36 77.2284 44.36L74.5824 44.414L74.3664 44.36Z" fill="white"/>
<path d="M85.7265 44.054C85.6185 43.886 85.5465 43.58 85.5105 43.136C85.4625 42.74 85.4385 42.164 85.4385 41.408L85.4565 39.428C85.4685 38.948 85.4745 38.186 85.4745 37.142L85.4205 37.088H83.6385C83.3745 37.088 83.2005 36.788 83.1165 36.188C83.0685 35.864 83.0445 35.39 83.0445 34.766V34.532C83.0685 34.448 83.0805 34.316 83.0805 34.136V33.776L83.0985 33.632L83.1705 33.56L83.4945 33.578H83.8545C84.3825 33.578 84.7845 33.572 85.0605 33.56H88.7145C88.8705 33.572 89.0925 33.578 89.3805 33.578H89.8305C89.8785 33.554 89.9565 33.542 90.0645 33.542C90.1485 33.518 90.2265 33.506 90.2985 33.506C90.5265 33.506 90.7005 33.518 90.8205 33.542C91.0605 33.566 91.2405 33.578 91.3605 33.578L91.8285 33.56H92.5305C92.8905 33.56 93.1365 33.566 93.2685 33.578L93.5205 33.596C93.5325 33.608 93.5505 33.626 93.5745 33.65C93.5985 33.662 93.6105 33.674 93.6105 33.686V36.746C93.6105 36.818 93.5685 36.896 93.4845 36.98C93.4125 37.064 93.3405 37.118 93.2685 37.142C92.8725 37.058 92.3565 37.016 91.7205 37.016H91.0365C90.8565 37.016 90.7365 37.244 90.6765 37.7C90.6525 37.832 90.6405 38.024 90.6405 38.276V38.816C90.6405 39.056 90.6465 39.236 90.6585 39.356V39.86C90.6585 40.352 90.6345 40.808 90.5865 41.228C90.5625 41.54 90.5505 41.768 90.5505 41.912C90.5265 42.056 90.5145 42.254 90.5145 42.506C90.5145 42.866 90.5025 43.166 90.4785 43.406C90.4665 43.778 90.3285 43.976 90.0645 44C89.7765 44.036 89.6085 44.054 89.5605 44.054H85.7265Z" fill="white"/>
<path d="M103.516 44.198C102.988 43.682 102.538 43.16 102.166 42.632C101.902 42.284 101.494 41.666 100.942 40.778L100.636 40.292C100.624 40.28 100.612 40.274 100.6 40.274C100.6 40.262 100.6 40.256 100.6 40.256H100.51L100.438 40.292C100.426 40.448 100.42 40.868 100.42 41.552C100.42 41.996 100.396 42.518 100.348 43.118L100.33 43.658C100.282 43.79 100.252 43.856 100.24 43.856H100.06C98.7403 43.952 97.7803 44 97.1803 44H96.5683C96.4362 44 96.3403 43.994 96.2803 43.982H96.1543L95.5963 43.802L95.5603 43.676C95.5363 43.676 95.5183 43.652 95.5063 43.604C95.5063 43.556 95.5063 43.52 95.5063 43.496C95.4703 42.992 95.4403 42.626 95.4163 42.398C95.3683 41.75 95.3383 41.276 95.3263 40.976C95.3023 40.688 95.2903 40.502 95.2903 40.418L95.2003 39.428L95.1823 38.888C95.1703 38.78 95.1643 38.63 95.1643 38.438V38.276C95.1883 38.216 95.2003 38.12 95.2003 37.988V37.682C95.2123 37.634 95.2183 37.58 95.2183 37.52L95.2003 37.376V37.196C95.2003 37.112 95.1883 37.046 95.1643 36.998V36.89L95.1823 36.44C95.1943 36.356 95.2003 36.23 95.2003 36.062C95.2243 35.702 95.2363 35.36 95.2363 35.036V34.856C95.2243 34.82 95.2183 34.742 95.2183 34.622V34.19C95.1823 34.154 95.1643 34.118 95.1643 34.082C95.1643 33.914 95.3143 33.794 95.6143 33.722C95.7703 33.674 95.9923 33.65 96.2803 33.65C99.0883 33.65 101.188 33.746 102.58 33.938C103.948 34.13 104.908 34.46 105.46 34.928C105.7 35.156 105.868 35.426 105.964 35.738C106.072 36.038 106.126 36.398 106.126 36.818C106.126 37.49 105.934 38.054 105.55 38.51C105.298 38.762 105.004 38.972 104.668 39.14C104.74 39.32 104.95 39.68 105.298 40.22C105.37 40.304 105.436 40.394 105.496 40.49C105.568 40.586 105.652 40.688 105.748 40.796C105.976 41.108 106.24 41.45 106.54 41.822C106.552 41.87 106.6 41.972 106.684 42.128C106.744 42.152 106.774 42.182 106.774 42.218C106.786 42.242 106.78 42.278 106.756 42.326C106.66 42.47 106.378 42.68 105.91 42.956C105.85 43.016 105.778 43.076 105.694 43.136C105.454 43.328 105.124 43.526 104.704 43.73C104.32 43.934 103.99 44.078 103.714 44.162C103.606 44.222 103.54 44.234 103.516 44.198ZM100.24 37.862C100.396 37.862 100.606 37.832 100.87 37.772C101.122 37.7 101.302 37.628 101.41 37.556C101.59 37.448 101.746 37.328 101.878 37.196C102.01 37.04 102.076 36.86 102.076 36.656C102.076 36.32 101.974 36.05 101.77 35.846C101.59 35.702 101.368 35.63 101.104 35.63H100.33C100.33 35.786 100.318 36.032 100.294 36.368L100.276 36.746C100.252 36.986 100.24 37.358 100.24 37.862Z" fill="white"/>
<path d="M112.318 44.27C111.838 44.294 111.43 44.282 111.094 44.234C110.818 44.174 110.566 44.09 110.338 43.982C110.11 43.874 109.9 43.706 109.708 43.478C109.324 42.998 109.066 42.368 108.934 41.588C108.838 40.952 108.802 40.256 108.826 39.5V38.708C108.826 38.6 108.832 38.516 108.844 38.456V37.592L108.898 37.466C108.898 37.454 108.898 37.436 108.898 37.412C108.91 37.388 108.916 37.346 108.916 37.286C108.952 36.854 108.97 36.506 108.97 36.242L109.006 35.576C109.018 35.276 109.024 34.928 109.024 34.532C109.024 34.376 109.018 34.268 109.006 34.208C108.982 34.064 108.97 33.95 108.97 33.866C108.97 33.686 109.156 33.596 109.528 33.596H109.78C109.924 33.596 110.02 33.584 110.068 33.56L112.264 33.596C112.264 33.596 112.27 33.608 112.282 33.632C112.306 33.644 112.324 33.65 112.336 33.65L112.48 33.596C113.104 33.596 113.506 33.656 113.686 33.776C113.806 33.86 113.89 33.986 113.938 34.154C113.998 34.322 114.028 34.55 114.028 34.838C114.028 35.03 114.04 35.294 114.064 35.63C114.088 35.798 114.1 36.062 114.1 36.422V36.602C114.076 36.95 114.052 37.52 114.028 38.312L114.01 39.176V39.95C113.986 40.094 113.974 40.286 113.974 40.526V41.066C113.962 41.234 113.986 41.468 114.046 41.768C114.106 41.864 114.16 41.912 114.208 41.912C114.28 41.912 114.55 41.822 115.018 41.642L115.45 41.426C115.57 41.378 115.63 41.33 115.63 41.282V35.36C115.594 35.108 115.576 34.91 115.576 34.766C115.564 34.706 115.558 34.616 115.558 34.496V34.046C115.558 33.902 115.588 33.8 115.648 33.74C115.672 33.704 115.732 33.686 115.828 33.686C115.852 33.686 115.876 33.698 115.9 33.722C115.924 33.734 115.936 33.752 115.936 33.776V33.812C116.056 33.764 116.314 33.722 116.71 33.686C117.034 33.65 117.394 33.632 117.79 33.632H118.87L120.76 33.686C120.784 33.686 120.802 33.692 120.814 33.704C120.838 33.716 120.85 33.728 120.85 33.74C120.862 33.74 120.868 33.746 120.868 33.758C120.868 33.77 120.868 33.776 120.868 33.776V33.866C120.856 33.866 120.85 33.884 120.85 33.92L120.94 33.902C120.952 33.878 120.97 33.866 120.994 33.866C121.03 33.866 121.048 33.896 121.048 33.956C121.048 36.056 121.036 37.802 121.012 39.194C121 40.574 120.952 41.972 120.868 43.388C120.868 43.448 120.82 43.538 120.724 43.658C120.676 43.718 120.634 43.766 120.598 43.802C120.586 43.826 120.568 43.844 120.544 43.856C120.52 43.868 120.502 43.88 120.49 43.892C120.478 43.88 120.436 43.868 120.364 43.856C120.292 43.832 120.232 43.82 120.184 43.82L120.13 43.856C120.106 43.88 120.082 43.892 120.058 43.892C119.578 43.976 118.822 44.018 117.79 44.018H116.998C116.698 44.018 116.434 43.994 116.206 43.946C116.122 43.886 116.032 43.736 115.936 43.496C115.924 43.412 115.9 43.34 115.864 43.28C115.84 43.22 115.81 43.19 115.774 43.19C115.678 43.19 115.528 43.256 115.324 43.388C115.3 43.412 115.264 43.442 115.216 43.478C115.18 43.502 115.144 43.532 115.108 43.568C115.012 43.64 114.946 43.7 114.91 43.748C114.586 43.928 114.202 44.06 113.758 44.144C113.458 44.216 113.182 44.252 112.93 44.252C112.654 44.252 112.45 44.258 112.318 44.27Z" fill="white"/>
<path d="M124.897 44.054C124.789 44.054 124.705 44.042 124.645 44.018H123.925L123.241 43.856L123.187 43.73V43.55L123.169 43.064C123.145 42.848 123.133 42.662 123.133 42.506L123.115 41.138C123.103 41.006 123.097 40.826 123.097 40.598C123.097 40.046 123.115 39.512 123.151 38.996C123.175 38.66 123.187 38.12 123.187 37.376C123.187 37.256 123.175 37.154 123.151 37.07V36.89L123.133 36.782C123.133 36.506 123.151 36.236 123.187 35.972L123.205 35.018L123.187 34.586V34.172C123.151 34.136 123.133 34.094 123.133 34.046C123.133 33.866 123.277 33.734 123.565 33.65C123.733 33.602 123.943 33.578 124.195 33.578H126.823L128.047 33.596C128.047 33.596 128.053 33.602 128.065 33.614C128.089 33.626 128.113 33.644 128.137 33.668C128.233 33.764 128.329 33.89 128.425 34.046C128.533 34.226 128.623 34.418 128.695 34.622C128.779 34.862 128.941 35.282 129.181 35.882C129.373 36.374 129.535 36.764 129.667 37.052C129.763 37.364 129.871 37.52 129.991 37.52C130.099 37.52 130.183 37.442 130.243 37.286C130.267 37.262 130.303 37.184 130.351 37.052L130.639 36.386C130.663 36.338 130.747 36.158 130.891 35.846C130.927 35.786 131.029 35.57 131.197 35.198L131.467 34.622C131.491 34.55 131.527 34.46 131.575 34.352C131.623 34.244 131.677 34.142 131.737 34.046C131.857 33.854 131.953 33.728 132.025 33.668C132.049 33.62 132.085 33.596 132.133 33.596L133.357 33.578H136.561C136.609 33.59 136.717 33.596 136.885 33.596C136.897 33.596 136.921 33.674 136.957 33.83C136.993 34.442 137.011 34.934 137.011 35.306C137.035 35.762 137.047 36.452 137.047 37.376V38.276C137.047 38.816 136.999 39.59 136.903 40.598V41.138C136.915 41.294 136.921 41.51 136.921 41.786L136.939 42.542C136.951 42.686 136.957 42.878 136.957 43.118C136.957 43.334 136.963 43.478 136.975 43.55V43.73L136.921 43.856L136.237 44.018H135.535C135.463 44.042 135.373 44.054 135.265 44.054C134.797 44.054 134.317 44.036 133.825 44C133.333 43.952 133.027 43.922 132.907 43.91L132.835 43.928H132.745C132.673 43.928 132.637 43.814 132.637 43.586C132.577 43.274 132.547 42.584 132.547 41.516C132.523 41.216 132.511 40.808 132.511 40.292C132.511 40.208 132.469 40.166 132.385 40.166C132.349 40.166 132.313 40.214 132.277 40.31C132.097 40.742 131.989 41.012 131.953 41.12L131.827 41.498L131.683 41.786C131.467 42.266 131.233 42.638 130.981 42.902C130.825 43.058 130.663 43.136 130.495 43.136H129.937C129.781 43.136 129.667 43.13 129.595 43.118C129.463 43.118 129.367 43.112 129.307 43.1C128.887 42.452 128.497 41.738 128.137 40.958C128.089 40.814 128.041 40.694 127.993 40.598C127.957 40.502 127.927 40.418 127.903 40.346C127.819 40.226 127.777 40.166 127.777 40.166C127.693 40.166 127.651 40.208 127.651 40.292V41.012C127.651 41.744 127.645 42.272 127.633 42.596C127.633 43.112 127.597 43.496 127.525 43.748C127.513 43.796 127.495 43.838 127.471 43.874C127.459 43.91 127.441 43.928 127.417 43.928H127.327L127.255 43.91C127.147 43.922 126.847 43.952 126.355 44C125.875 44.036 125.389 44.054 124.897 44.054Z" fill="white"/>
<path d="M139.794 43.928C139.77 43.928 139.752 43.904 139.74 43.856C139.656 43.748 139.596 43.616 139.56 43.46C139.524 43.4 139.494 43.322 139.47 43.226C139.362 43.01 139.284 42.71 139.236 42.326C139.188 41.774 139.164 41.336 139.164 41.012C139.152 40.868 139.146 40.67 139.146 40.418V39.986C139.146 39.626 139.14 39.344 139.128 39.14C139.116 38.924 139.11 38.498 139.11 37.862C139.11 36.158 139.146 34.844 139.218 33.92C139.218 33.776 139.422 33.668 139.83 33.596H140.82C141.504 33.596 142.014 33.608 142.35 33.632C142.854 33.668 143.364 33.686 143.88 33.686C144 33.686 144.09 33.68 144.15 33.668H144.42L144.51 33.74C144.906 33.656 145.314 33.602 145.734 33.578C146.154 33.554 146.664 33.542 147.264 33.542C147.288 33.542 147.318 33.56 147.354 33.596H147.93C148.026 33.596 148.098 33.65 148.146 33.758C148.206 33.866 148.254 34.022 148.29 34.226C148.338 34.382 148.374 34.574 148.398 34.802C148.446 35.102 148.488 35.3 148.524 35.396C148.524 35.732 148.464 35.9 148.344 35.9C148.332 35.9 148.314 35.882 148.29 35.846L148.218 35.828C148.158 35.816 148.092 35.822 148.02 35.846C147.948 35.882 147.87 35.9 147.786 35.9C147.714 35.9 147.654 35.882 147.606 35.846C147.582 35.834 147.528 35.828 147.444 35.828C147.336 35.828 147.21 35.846 147.066 35.882C147.018 35.894 146.922 35.912 146.778 35.936C146.646 35.96 146.49 35.972 146.31 35.972C145.794 35.972 145.422 35.984 145.194 36.008C145.062 36.02 144.936 36.056 144.816 36.116V36.08C144.768 36.08 144.726 36.14 144.69 36.26C144.606 36.464 144.552 36.746 144.528 37.106C144.516 37.214 144.51 37.334 144.51 37.466C144.51 37.598 144.528 37.688 144.564 37.736C144.612 37.784 144.684 37.808 144.78 37.808C144.852 37.808 144.912 37.784 144.96 37.736C144.984 37.736 145.014 37.742 145.05 37.754C145.086 37.766 145.116 37.784 145.14 37.808H146.67C146.682 37.784 146.7 37.766 146.724 37.754C146.748 37.742 146.772 37.736 146.796 37.736C146.916 37.736 147.006 37.754 147.066 37.79C147.138 37.826 147.282 37.862 147.498 37.898C147.618 37.898 147.702 37.934 147.75 38.006C147.81 38.09 147.84 38.168 147.84 38.24L148.218 39.428C148.254 39.62 148.074 39.746 147.678 39.806C147.45 39.854 147.012 39.878 146.364 39.878H145.05C144.882 39.878 144.756 39.89 144.672 39.914C144.588 39.926 144.534 39.968 144.51 40.04C144.462 40.1 144.438 40.196 144.438 40.328V40.4C144.438 40.46 144.444 40.502 144.456 40.526L144.438 40.922C144.426 41.006 144.42 41.132 144.42 41.3V41.75C144.96 41.75 145.512 41.732 146.076 41.696C146.628 41.66 147.174 41.642 147.714 41.642C147.75 41.642 147.78 41.672 147.804 41.732C147.828 41.78 147.84 41.84 147.84 41.912C147.864 41.984 147.876 42.062 147.876 42.146C147.9 42.326 147.936 42.494 147.984 42.65L148.11 43.172V43.73L147.966 43.856H147.786C147.654 43.856 147.57 43.85 147.534 43.838C147.498 43.814 147.456 43.802 147.408 43.802C147.384 43.814 147.348 43.832 147.3 43.856C147.252 43.88 147.21 43.904 147.174 43.928V43.838L146.958 43.856H146.688C146.64 43.856 146.604 43.844 146.58 43.82L146.436 43.802C145.992 43.802 145.68 43.844 145.5 43.928H139.794Z" fill="white"/>
<path d="M151.437 44.054L150.735 43.856L150.699 43.748C150.687 43.748 150.681 43.688 150.681 43.568C150.681 43.412 150.675 43.286 150.663 43.19L150.645 42.506C150.633 42.362 150.627 42.134 150.627 41.822C150.627 41.522 150.621 41.3 150.609 41.156V40.616C150.537 39.86 150.501 39.08 150.501 38.276V37.862C150.501 37.718 150.507 37.616 150.519 37.556V37.286C150.507 37.25 150.501 37.19 150.501 37.106V36.332C150.501 36.188 150.507 36.086 150.519 36.026V35.846L150.537 35.756V35.522C150.549 35.402 150.555 35.24 150.555 35.036C150.555 34.88 150.549 34.742 150.537 34.622L150.519 34.208L150.501 34.136C150.465 34.112 150.465 34.094 150.501 34.082C150.549 33.89 150.699 33.752 150.951 33.668C151.071 33.62 151.269 33.596 151.545 33.596C151.749 33.596 152.283 33.578 153.147 33.542C153.579 33.518 153.849 33.506 153.957 33.506C154.137 33.494 154.353 33.488 154.605 33.488C154.725 33.5 154.809 33.524 154.857 33.56C154.905 33.584 154.947 33.632 154.983 33.704C155.031 33.776 155.067 33.83 155.091 33.866L155.451 34.388C155.439 34.376 155.589 34.592 155.901 35.036C156.189 35.504 156.537 36.032 156.945 36.62C157.005 36.716 157.077 36.824 157.161 36.944C157.245 37.064 157.335 37.202 157.431 37.358V36.728C157.443 36.56 157.449 36.32 157.449 36.008C157.449 35.6 157.461 35.144 157.485 34.64C157.485 34.544 157.491 34.46 157.503 34.388C157.515 34.304 157.521 34.238 157.521 34.19C157.521 34.07 157.527 34.01 157.539 34.01C157.587 33.938 157.671 33.86 157.791 33.776C157.935 33.68 158.085 33.638 158.241 33.65H159.321C159.501 33.65 159.651 33.656 159.771 33.668H160.311C160.431 33.68 160.611 33.686 160.851 33.686H161.427C161.667 33.686 161.847 33.728 161.967 33.812C162.039 33.86 162.087 33.926 162.111 34.01C162.135 34.082 162.147 34.196 162.147 34.352C162.147 34.508 162.141 34.64 162.129 34.748C162.117 34.868 162.111 35.012 162.111 35.18V35.306C162.123 35.342 162.129 35.396 162.129 35.468V35.936L162.111 38.006V40.526C162.111 41.822 162.099 42.644 162.075 42.992L162.021 43.586C161.961 43.862 161.877 44.006 161.769 44.018C161.745 44.018 161.709 44.024 161.661 44.036C161.625 44.048 161.583 44.054 161.535 44.054C161.103 44.054 160.785 44.042 160.581 44.018H158.475C158.439 44.03 158.391 44.036 158.331 44.036C158.187 44.036 158.037 44.006 157.881 43.946C157.785 43.922 157.683 43.856 157.575 43.748L155.991 41.516C155.931 41.432 155.817 41.294 155.649 41.102L155.415 40.886C155.355 40.826 155.307 40.796 155.271 40.796C155.235 40.796 155.205 40.814 155.181 40.85C155.157 40.874 155.145 40.898 155.145 40.922V41.228C155.133 41.324 155.127 41.474 155.127 41.678V42.2C155.115 42.332 155.109 42.512 155.109 42.74V43.442C155.097 43.466 155.091 43.502 155.091 43.55C155.091 43.562 155.073 43.658 155.037 43.838C155.013 43.886 154.995 43.916 154.983 43.928C154.971 43.94 154.929 43.946 154.857 43.946C154.833 43.934 154.809 43.928 154.785 43.928C154.773 43.928 154.761 43.928 154.749 43.928C153.801 44.012 153.015 44.054 152.391 44.054H151.437Z" fill="white"/>
<path d="M166.516 44.054C166.408 43.886 166.336 43.58 166.3 43.136C166.252 42.74 166.228 42.164 166.228 41.408L166.246 39.428C166.258 38.948 166.264 38.186 166.264 37.142L166.21 37.088H164.428C164.164 37.088 163.99 36.788 163.906 36.188C163.858 35.864 163.834 35.39 163.834 34.766V34.532C163.858 34.448 163.87 34.316 163.87 34.136V33.776L163.888 33.632L163.96 33.56L164.284 33.578H164.644C165.172 33.578 165.574 33.572 165.85 33.56H169.504C169.66 33.572 169.882 33.578 170.17 33.578H170.62C170.668 33.554 170.746 33.542 170.854 33.542C170.938 33.518 171.016 33.506 171.088 33.506C171.316 33.506 171.49 33.518 171.61 33.542C171.85 33.566 172.03 33.578 172.15 33.578L172.618 33.56H173.32C173.68 33.56 173.926 33.566 174.058 33.578L174.31 33.596C174.322 33.608 174.34 33.626 174.364 33.65C174.388 33.662 174.4 33.674 174.4 33.686V36.746C174.4 36.818 174.358 36.896 174.274 36.98C174.202 37.064 174.13 37.118 174.058 37.142C173.662 37.058 173.146 37.016 172.51 37.016H171.826C171.646 37.016 171.526 37.244 171.466 37.7C171.442 37.832 171.43 38.024 171.43 38.276V38.816C171.43 39.056 171.436 39.236 171.448 39.356V39.86C171.448 40.352 171.424 40.808 171.376 41.228C171.352 41.54 171.34 41.768 171.34 41.912C171.316 42.056 171.304 42.254 171.304 42.506C171.304 42.866 171.292 43.166 171.268 43.406C171.256 43.778 171.118 43.976 170.854 44C170.566 44.036 170.398 44.054 170.35 44.054H166.516Z" fill="white"/>
<g filter="url(#filter0_d)">
<path d="M206 14H592V46.0001H206V14Z" fill="#3F6653"/>
<path d="M206.5 14.5H591.5V45.5001H206.5V14.5Z" stroke="black"/>
</g>
<path d="M230.623 41.2951V14.0009V44.1186M208 14.0009L208 45.0598M251.832 14.0009V44.1186M273.04 14.0009V44.1186M294.249 14.0009V44.1186M315.369 14L315.467 44.1176M336.667 14.0009V44.1186M357.875 14.0009V44.1186M379.084 14.0009V44.1186M400.293 14.0009V45.0598M421.502 14.0009V44.1186M442.711 14.0009V44.1186M463.919 14.0009V44.1186M485.128 14.0009V44.1186M506.337 14.0009V44.1186M527.546 14.0009V44.1186M548.755 14.0009V44.1186M569.963 14.0009V44.1186M591.172 14.0009V45.0598M208.707 22.0009H590.465M208.707 29.5303H590.465M208.707 37.0598H590.465M208.707 44.5892H591.879M208.707 14.4715L590.465 14.4623" stroke="#6E701E"/>
<defs>
<filter id="filter0_d" x="202" y="14" width="394" height="40.0001" filterUnits="userSpaceOnUse" color-interpolation-filters="sRGB">
<feFlood flood-opacity="0" result="BackgroundImageFix"/>
<feColorMatrix in="SourceAlpha" type="matrix" values="0 0 0 0 0 0 0 0 0 0 0 0 0 0 0 0 0 0 127 0" result="hardAlpha"/>
<feOffset dy="4"/>
<feGaussianBlur stdDeviation="2"/>
<feComposite in2="hardAlpha" operator="out"/>
<feColorMatrix type="matrix" values="0 0 0 0 0 0 0 0 0 0 0 0 0 0 0 0 0 0 0.25 0"/>
<feBlend mode="normal" in2="BackgroundImageFix" result="effect1_dropShadow"/>
<feBlend mode="normal" in="SourceGraphic" in2="effect1_dropShadow" result="shape"/>
</filter>
</defs>
</svg>
